<svg xmlns="http://www.w3.org/2000/svg" xmlns:xlink="http://www.w3.org/1999/xlink" width="20" zoomAndPan="magnify" viewBox="0 0 375 374.999991" height="20" preserveAspectRatio="xMidYMid meet" version="1.0"><path fill="#966933" d="M 119.078125 181.75 C 117.738281 180.601562 115.695312 180.792969 114.609375 182.070312 C 114.226562 182.515625 113.96875 183.09375 113.839844 183.667969 C 112.5 191.972656 114.097656 204.492188 128.34375 219.441406 C 143.421875 235.285156 163.480469 234.070312 173.253906 230.558594 C 175.746094 229.664062 178.429688 227.492188 176.574219 225.574219 C 171.914062 220.785156 161.691406 211.710938 154.535156 207.496094 C 143.867188 201.171875 137.671875 196.125 130.769531 191.011719 C 126.808594 188.140625 122.273438 184.433594 119.078125 181.75 Z M 176.382812 220.273438 C 177.726562 221.488281 179.832031 221.421875 181.113281 220.082031 C 181.496094 219.632812 181.75 219.121094 181.878906 218.613281 C 183.730469 210.371094 181.941406 197.914062 168.078125 182.199219 C 155.367188 167.824219 139.585938 166.867188 128.085938 169.292969 C 123.167969 170.316406 116.398438 173.316406 119.847656 176.960938 C 124 181.367188 134.921875 190.503906 141.3125 194.589844 C 151.917969 201.492188 158.050781 204.875 164.886719 210.371094 C 168.78125 213.4375 173.253906 217.398438 176.382812 220.273438 Z M 231.324219 134.667969 C 233.113281 134.21875 234.136719 132.433594 233.6875 130.644531 C 233.558594 130.132812 233.304688 129.621094 232.921875 129.171875 C 227.171875 123.167969 216.3125 117.035156 195.996094 119.71875 C 174.402344 122.65625 163.480469 139.652344 160.414062 149.679688 C 159.648438 152.234375 159.773438 155.75 162.394531 155.367188 C 168.972656 154.40625 182.199219 151.46875 189.863281 148.148438 C 201.234375 143.226562 208.964844 141.183594 217.078125 138.566406 C 221.679688 137.160156 227.363281 135.691406 231.324219 134.667969 Z M 166.738281 158.433594 C 164.886719 158.816406 163.734375 160.667969 164.117188 162.519531 C 164.246094 163.03125 164.4375 163.542969 164.820312 163.925781 C 170.1875 170.316406 181.175781 176.320312 201.808594 174.339844 C 220.785156 172.550781 230.941406 160.285156 235.859375 149.425781 C 237.96875 144.824219 239.628906 137.480469 234.773438 138.117188 C 228.769531 138.882812 215.097656 142.332031 208.070312 145.082031 C 196.316406 149.617188 189.925781 152.621094 181.558594 154.917969 C 176.703125 156.324219 170.828125 157.601562 166.738281 158.433594 Z M 246.335938 190.566406 C 247.421875 189.097656 247.039062 187.054688 245.570312 185.964844 C 245.125 185.648438 244.613281 185.457031 244.039062 185.390625 C 235.796875 184.5625 223.59375 187.054688 209.859375 202.511719 C 195.292969 218.929688 197.785156 239.054688 201.875 248.765625 C 202.894531 251.257812 205.261719 253.8125 206.984375 251.832031 C 211.394531 246.785156 219.570312 235.796875 223.273438 228.257812 C 228.769531 217.015625 233.367188 210.371094 237.90625 203.085938 C 240.585938 198.871094 243.910156 193.953125 246.335938 190.566406 Z M 212.351562 251.257812 C 211.199219 252.726562 211.457031 254.898438 212.925781 256.046875 C 213.375 256.367188 213.820312 256.621094 214.394531 256.6875 C 222.574219 257.964844 234.710938 255.34375 249.210938 240.269531 C 262.5 226.40625 262.371094 210.371094 259.242188 198.871094 C 257.898438 193.953125 254.515625 187.308594 251.191406 191.011719 C 247.105469 195.550781 238.925781 207.175781 235.285156 213.949219 C 229.214844 225.191406 226.277344 231.644531 221.359375 238.925781 C 218.546875 243.078125 214.90625 247.871094 212.351562 251.257812 Z M 212.351562 251.257812 " fill-opacity="1" fill-rule="nonzero"/></svg>