<svg xmlns="http://www.w3.org/2000/svg" xmlns:xlink="http://www.w3.org/1999/xlink" width="500" zoomAndPan="magnify" viewBox="0 0 375 374.999991" height="500" preserveAspectRatio="xMidYMid meet" version="1.0"><path fill="#e6bb68" d="M 219.144531 214.121094 C 318.9375 301.515625 132.296875 340.328125 175.382812 223.226562 C 132.296875 340.328125 37.589844 175.234375 153.167969 184.492188 C 37.589844 175.234375 165.734375 34.328125 183.238281 151.429688 C 165.734375 34.328125 339.660156 112.320312 224.007812 169.714844 C 339.585938 112.394531 318.9375 301.515625 219.144531 214.121094 Z M 219.144531 214.121094 " fill-opacity="1" fill-rule="nonzero"/><path fill="#ffda7b" d="M 217.949219 190.683594 C 217.949219 191.515625 217.910156 192.34375 217.828125 193.171875 C 217.746094 194 217.625 194.820312 217.460938 195.636719 C 217.296875 196.449219 217.097656 197.257812 216.855469 198.050781 C 216.613281 198.847656 216.332031 199.628906 216.011719 200.394531 C 215.695312 201.164062 215.339844 201.914062 214.945312 202.648438 C 214.554688 203.378906 214.125 204.09375 213.664062 204.785156 C 213.199219 205.472656 212.703125 206.140625 212.175781 206.785156 C 211.648438 207.425781 211.089844 208.042969 210.5 208.628906 C 209.910156 209.214844 209.292969 209.773438 208.648438 210.300781 C 208.007812 210.828125 207.339844 211.324219 206.644531 211.785156 C 205.953125 212.246094 205.238281 212.671875 204.503906 213.066406 C 203.769531 213.457031 203.019531 213.8125 202.25 214.128906 C 201.480469 214.449219 200.695312 214.726562 199.898438 214.96875 C 199.101562 215.210938 198.292969 215.410156 197.476562 215.574219 C 196.660156 215.734375 195.835938 215.855469 195.007812 215.9375 C 194.179688 216.019531 193.347656 216.0625 192.515625 216.0625 C 191.683594 216.0625 190.851562 216.019531 190.023438 215.9375 C 189.191406 215.855469 188.371094 215.734375 187.554688 215.574219 C 186.734375 215.410156 185.929688 215.210938 185.132812 214.96875 C 184.335938 214.726562 183.550781 214.449219 182.78125 214.128906 C 182.011719 213.8125 181.261719 213.457031 180.523438 213.066406 C 179.789062 212.671875 179.078125 212.246094 178.382812 211.785156 C 177.691406 211.324219 177.023438 210.828125 176.378906 210.300781 C 175.734375 209.773438 175.121094 209.214844 174.53125 208.628906 C 173.941406 208.042969 173.382812 207.425781 172.855469 206.785156 C 172.324219 206.140625 171.828125 205.472656 171.367188 204.785156 C 170.902344 204.09375 170.476562 203.378906 170.082031 202.648438 C 169.691406 201.914062 169.335938 201.164062 169.015625 200.394531 C 168.699219 199.628906 168.417969 198.847656 168.175781 198.050781 C 167.933594 197.257812 167.730469 196.449219 167.570312 195.636719 C 167.40625 194.820312 167.285156 194 167.203125 193.171875 C 167.121094 192.34375 167.082031 191.515625 167.082031 190.683594 C 167.082031 189.855469 167.121094 189.023438 167.203125 188.199219 C 167.285156 187.371094 167.40625 186.550781 167.570312 185.734375 C 167.730469 184.917969 167.933594 184.113281 168.175781 183.320312 C 168.417969 182.523438 168.699219 181.742188 169.015625 180.976562 C 169.335938 180.207031 169.691406 179.457031 170.082031 178.722656 C 170.476562 177.992188 170.902344 177.277344 171.367188 176.585938 C 171.828125 175.898438 172.324219 175.230469 172.855469 174.585938 C 173.382812 173.945312 173.941406 173.328125 174.53125 172.742188 C 175.121094 172.15625 175.734375 171.597656 176.378906 171.070312 C 177.023438 170.542969 177.691406 170.046875 178.382812 169.585938 C 179.078125 169.125 179.789062 168.699219 180.523438 168.304688 C 181.261719 167.914062 182.011719 167.558594 182.78125 167.242188 C 183.550781 166.921875 184.335938 166.644531 185.132812 166.402344 C 185.929688 166.160156 186.734375 165.960938 187.554688 165.796875 C 188.371094 165.636719 189.191406 165.511719 190.023438 165.433594 C 190.851562 165.351562 191.683594 165.308594 192.515625 165.308594 C 193.347656 165.308594 194.179688 165.351562 195.007812 165.433594 C 195.835938 165.511719 196.660156 165.636719 197.476562 165.796875 C 198.292969 165.960938 199.101562 166.160156 199.898438 166.402344 C 200.695312 166.644531 201.480469 166.921875 202.25 167.242188 C 203.019531 167.558594 203.769531 167.914062 204.503906 168.304688 C 205.238281 168.699219 205.953125 169.125 206.644531 169.585938 C 207.339844 170.046875 208.007812 170.542969 208.648438 171.070312 C 209.292969 171.597656 209.910156 172.15625 210.5 172.742188 C 211.089844 173.328125 211.648438 173.945312 212.175781 174.585938 C 212.703125 175.230469 213.199219 175.898438 213.664062 176.585938 C 214.125 177.277344 214.554688 177.992188 214.945312 178.722656 C 215.339844 179.457031 215.695312 180.207031 216.011719 180.976562 C 216.332031 181.742188 216.613281 182.523438 216.855469 183.320312 C 217.097656 184.113281 217.296875 184.917969 217.460938 185.734375 C 217.625 186.550781 217.746094 187.371094 217.828125 188.199219 C 217.910156 189.023438 217.949219 189.855469 217.949219 190.683594 Z M 217.949219 190.683594 " fill-opacity="1" fill-rule="nonzero"/></svg>