<svg xmlns="http://www.w3.org/2000/svg" xmlns:xlink="http://www.w3.org/1999/xlink" width="500" zoomAndPan="magnify" viewBox="0 0 375 374.999991" height="500" preserveAspectRatio="xMidYMid meet" version="1.0"><path fill="#f9afa6" d="M 249.089844 223.195312 C 349.789062 281.667969 187.019531 374.925781 187.402344 258.542969 C 187.066406 374.898438 24.851562 280.695312 125.875 222.8125 C 24.851562 280.695312 25.394531 93.199219 126.074219 151.707031 C 25.375 93.234375 188.152344 -0.0273438 187.816406 116.355469 C 188.152344 0 350.367188 94.203125 249.34375 152.097656 C 350.324219 94.203125 349.777344 281.667969 249.089844 223.195312 Z M 249.089844 223.195312 " fill-opacity="1" fill-rule="nonzero"/><path fill="#fbdcd9" d="M 189.855469 141.308594 C 190.234375 141.308594 190.597656 141.382812 190.949219 141.527344 C 191.300781 141.671875 191.609375 141.878906 191.878906 142.148438 C 192.148438 142.417969 192.351562 142.726562 192.5 143.078125 C 192.644531 143.429688 192.714844 143.792969 192.714844 144.171875 L 192.714844 164.296875 C 192.714844 164.675781 192.644531 165.042969 192.5 165.390625 C 192.351562 165.742188 192.148438 166.050781 191.878906 166.320312 C 191.609375 166.589844 191.300781 166.796875 190.949219 166.941406 C 190.597656 167.085938 190.234375 167.160156 189.855469 167.160156 C 189.476562 167.160156 189.109375 167.085938 188.757812 166.941406 C 188.410156 166.796875 188.097656 166.589844 187.832031 166.320312 C 187.5625 166.050781 187.355469 165.742188 187.210938 165.390625 C 187.066406 165.042969 186.992188 164.675781 186.992188 164.296875 L 186.992188 144.171875 C 186.992188 143.792969 187.066406 143.429688 187.210938 143.078125 C 187.355469 142.726562 187.5625 142.417969 187.832031 142.148438 C 188.097656 141.878906 188.410156 141.671875 188.757812 141.527344 C 189.109375 141.382812 189.476562 141.308594 189.855469 141.308594 Z M 189.855469 141.308594 " fill-opacity="1" fill-rule="nonzero"/><path fill="#fbdcd9" d="M 156.511719 153.207031 C 156.777344 152.941406 157.089844 152.734375 157.4375 152.589844 C 157.789062 152.441406 158.15625 152.371094 158.535156 152.371094 C 158.914062 152.371094 159.28125 152.445312 159.632812 152.589844 C 159.980469 152.734375 160.292969 152.941406 160.5625 153.210938 L 174.800781 167.441406 C 175.070312 167.707031 175.277344 168.019531 175.421875 168.367188 C 175.570312 168.71875 175.640625 169.085938 175.640625 169.464844 C 175.644531 169.84375 175.570312 170.207031 175.425781 170.558594 C 175.28125 170.910156 175.074219 171.21875 174.804688 171.488281 C 174.535156 171.753906 174.226562 171.960938 173.875 172.105469 C 173.523438 172.25 173.160156 172.324219 172.78125 172.324219 C 172.398438 172.324219 172.035156 172.25 171.683594 172.105469 C 171.332031 171.960938 171.023438 171.753906 170.753906 171.484375 L 156.511719 157.253906 C 156.246094 156.988281 156.039062 156.675781 155.890625 156.328125 C 155.746094 155.976562 155.671875 155.609375 155.671875 155.230469 C 155.671875 154.851562 155.746094 154.484375 155.890625 154.136719 C 156.035156 153.785156 156.242188 153.476562 156.511719 153.207031 Z M 156.511719 153.207031 " fill-opacity="1" fill-rule="nonzero"/><path fill="#fbdcd9" d="M 141.359375 185.175781 C 141.359375 184.796875 141.433594 184.429688 141.578125 184.082031 C 141.722656 183.730469 141.929688 183.421875 142.199219 183.152344 C 142.46875 182.886719 142.777344 182.679688 143.128906 182.53125 C 143.480469 182.386719 143.847656 182.316406 144.226562 182.316406 L 164.367188 182.316406 C 164.746094 182.316406 165.113281 182.386719 165.464844 182.53125 C 165.816406 182.679688 166.125 182.886719 166.394531 183.152344 C 166.664062 183.421875 166.871094 183.730469 167.015625 184.082031 C 167.160156 184.429688 167.234375 184.796875 167.234375 185.175781 C 167.234375 185.554688 167.160156 185.917969 167.015625 186.269531 C 166.871094 186.621094 166.664062 186.929688 166.394531 187.195312 C 166.125 187.464844 165.816406 187.671875 165.464844 187.816406 C 165.113281 187.960938 164.746094 188.035156 164.367188 188.035156 L 144.226562 188.035156 C 143.847656 188.035156 143.480469 187.960938 143.128906 187.816406 C 142.777344 187.671875 142.46875 187.464844 142.199219 187.195312 C 141.929688 186.929688 141.722656 186.621094 141.578125 186.269531 C 141.433594 185.917969 141.359375 185.554688 141.359375 185.175781 Z M 141.359375 185.175781 " fill-opacity="1" fill-rule="nonzero"/><path fill="#fbdcd9" d="M 153.28125 218.484375 C 153.015625 218.214844 152.808594 217.90625 152.664062 217.554688 C 152.515625 217.207031 152.445312 216.839844 152.445312 216.460938 C 152.445312 216.082031 152.519531 215.714844 152.664062 215.367188 C 152.808594 215.015625 153.015625 214.707031 153.285156 214.4375 L 167.527344 200.207031 C 167.796875 199.941406 168.105469 199.734375 168.457031 199.585938 C 168.808594 199.441406 169.171875 199.367188 169.554688 199.367188 C 169.933594 199.367188 170.296875 199.441406 170.648438 199.585938 C 171 199.730469 171.308594 199.9375 171.578125 200.203125 C 171.847656 200.472656 172.054688 200.78125 172.199219 201.132812 C 172.34375 201.484375 172.414062 201.847656 172.414062 202.226562 C 172.414062 202.609375 172.339844 202.972656 172.195312 203.324219 C 172.050781 203.675781 171.84375 203.984375 171.574219 204.253906 L 157.332031 218.480469 C 157.066406 218.75 156.753906 218.957031 156.402344 219.101562 C 156.054688 219.246094 155.6875 219.320312 155.308594 219.320312 C 154.925781 219.320312 154.5625 219.25 154.210938 219.105469 C 153.859375 218.957031 153.550781 218.753906 153.28125 218.484375 Z M 153.28125 218.484375 " fill-opacity="1" fill-rule="nonzero"/><path fill="#fbdcd9" d="M 185.273438 233.628906 C 184.894531 233.628906 184.527344 233.554688 184.179688 233.410156 C 183.828125 233.261719 183.519531 233.058594 183.25 232.789062 C 182.980469 232.519531 182.773438 232.210938 182.628906 231.859375 C 182.484375 231.507812 182.410156 231.144531 182.410156 230.761719 L 182.410156 210.640625 C 182.410156 210.261719 182.484375 209.894531 182.628906 209.542969 C 182.773438 209.195312 182.980469 208.882812 183.25 208.617188 C 183.519531 208.347656 183.828125 208.140625 184.179688 207.996094 C 184.527344 207.847656 184.894531 207.777344 185.273438 207.777344 C 185.652344 207.777344 186.019531 207.847656 186.367188 207.996094 C 186.71875 208.140625 187.027344 208.347656 187.296875 208.613281 C 187.566406 208.882812 187.773438 209.195312 187.917969 209.542969 C 188.0625 209.894531 188.136719 210.261719 188.136719 210.640625 L 188.136719 230.761719 C 188.136719 231.144531 188.0625 231.507812 187.917969 231.859375 C 187.773438 232.210938 187.566406 232.519531 187.296875 232.789062 C 187.027344 233.058594 186.71875 233.261719 186.367188 233.410156 C 186.019531 233.554688 185.652344 233.628906 185.273438 233.628906 Z M 185.273438 233.628906 " fill-opacity="1" fill-rule="nonzero"/><path fill="#fbdcd9" d="M 218.605469 221.722656 C 218.339844 221.988281 218.027344 222.195312 217.679688 222.339844 C 217.328125 222.484375 216.960938 222.558594 216.582031 222.558594 C 216.203125 222.558594 215.835938 222.484375 215.484375 222.339844 C 215.136719 222.195312 214.824219 221.988281 214.554688 221.71875 L 200.316406 207.488281 C 200.046875 207.222656 199.839844 206.910156 199.695312 206.5625 C 199.546875 206.210938 199.476562 205.84375 199.472656 205.464844 C 199.472656 205.085938 199.546875 204.722656 199.691406 204.371094 C 199.835938 204.019531 200.042969 203.710938 200.3125 203.441406 C 200.582031 203.175781 200.890625 202.96875 201.242188 202.824219 C 201.589844 202.675781 201.957031 202.605469 202.335938 202.605469 C 202.714844 202.605469 203.082031 202.679688 203.433594 202.824219 C 203.785156 202.96875 204.09375 203.175781 204.363281 203.445312 L 218.605469 217.675781 C 218.871094 217.941406 219.078125 218.253906 219.226562 218.601562 C 219.371094 218.953125 219.445312 219.320312 219.445312 219.699219 C 219.445312 220.078125 219.371094 220.441406 219.226562 220.792969 C 219.082031 221.144531 218.875 221.453125 218.605469 221.722656 Z M 218.605469 221.722656 " fill-opacity="1" fill-rule="nonzero"/><path fill="#fbdcd9" d="M 233.757812 189.753906 C 233.757812 190.132812 233.683594 190.496094 233.539062 190.847656 C 233.394531 191.195312 233.1875 191.507812 232.917969 191.773438 C 232.648438 192.042969 232.339844 192.25 231.988281 192.394531 C 231.636719 192.539062 231.269531 192.613281 230.890625 192.613281 L 210.75 192.613281 C 210.371094 192.613281 210.003906 192.539062 209.65625 192.394531 C 209.304688 192.25 208.992188 192.042969 208.722656 191.773438 C 208.457031 191.507812 208.25 191.195312 208.101562 190.847656 C 207.957031 190.496094 207.886719 190.132812 207.886719 189.753906 C 207.886719 189.375 207.957031 189.007812 208.101562 188.65625 C 208.25 188.308594 208.457031 188 208.722656 187.730469 C 208.992188 187.460938 209.304688 187.253906 209.65625 187.109375 C 210.003906 186.964844 210.371094 186.894531 210.75 186.894531 L 230.890625 186.894531 C 231.269531 186.894531 231.636719 186.964844 231.988281 187.109375 C 232.339844 187.253906 232.648438 187.460938 232.917969 187.730469 C 233.1875 188 233.394531 188.308594 233.539062 188.65625 C 233.683594 189.007812 233.757812 189.375 233.757812 189.753906 Z M 233.757812 189.753906 " fill-opacity="1" fill-rule="nonzero"/><path fill="#fbdcd9" d="M 221.855469 156.449219 C 222.125 156.71875 222.328125 157.027344 222.476562 157.378906 C 222.621094 157.730469 222.691406 158.09375 222.691406 158.472656 C 222.691406 158.851562 222.617188 159.21875 222.472656 159.570312 C 222.328125 159.917969 222.121094 160.230469 221.851562 160.496094 L 207.609375 174.726562 C 207.34375 174.996094 207.03125 175.203125 206.679688 175.347656 C 206.328125 175.492188 205.964844 175.566406 205.585938 175.566406 C 205.203125 175.566406 204.839844 175.496094 204.488281 175.347656 C 204.136719 175.203125 203.828125 174.996094 203.558594 174.730469 C 203.292969 174.460938 203.085938 174.152344 202.941406 173.800781 C 202.792969 173.453125 202.722656 173.085938 202.722656 172.707031 C 202.722656 172.328125 202.796875 171.960938 202.941406 171.609375 C 203.085938 171.261719 203.292969 170.949219 203.5625 170.683594 L 217.804688 156.453125 C 218.074219 156.183594 218.382812 155.976562 218.734375 155.832031 C 219.085938 155.6875 219.449219 155.613281 219.832031 155.613281 C 220.210938 155.613281 220.574219 155.6875 220.925781 155.832031 C 221.277344 155.976562 221.585938 156.183594 221.855469 156.449219 Z M 221.855469 156.449219 " fill-opacity="1" fill-rule="nonzero"/><path fill="#ffffff" d="M 199.074219 187.464844 C 199.074219 188.21875 199.003906 188.96875 198.855469 189.707031 C 198.707031 190.449219 198.488281 191.167969 198.199219 191.867188 C 197.910156 192.5625 197.554688 193.226562 197.136719 193.855469 C 196.714844 194.480469 196.238281 195.0625 195.703125 195.597656 C 195.167969 196.132812 194.589844 196.609375 193.960938 197.027344 C 193.332031 197.445312 192.667969 197.800781 191.96875 198.089844 C 191.269531 198.378906 190.550781 198.597656 189.808594 198.746094 C 189.066406 198.890625 188.320312 198.964844 187.5625 198.964844 C 186.808594 198.964844 186.058594 198.890625 185.316406 198.746094 C 184.578125 198.597656 183.855469 198.378906 183.160156 198.089844 C 182.460938 197.800781 181.796875 197.445312 181.167969 197.027344 C 180.539062 196.609375 179.957031 196.132812 179.421875 195.597656 C 178.890625 195.0625 178.410156 194.480469 177.992188 193.855469 C 177.570312 193.226562 177.21875 192.5625 176.929688 191.867188 C 176.636719 191.167969 176.421875 190.449219 176.273438 189.707031 C 176.125 188.96875 176.050781 188.21875 176.050781 187.464844 C 176.050781 186.707031 176.125 185.960938 176.273438 185.21875 C 176.421875 184.480469 176.636719 183.757812 176.929688 183.0625 C 177.21875 182.363281 177.570312 181.703125 177.992188 181.074219 C 178.410156 180.445312 178.890625 179.863281 179.421875 179.332031 C 179.957031 178.796875 180.539062 178.320312 181.167969 177.898438 C 181.796875 177.480469 182.460938 177.125 183.160156 176.835938 C 183.855469 176.546875 184.578125 176.328125 185.316406 176.183594 C 186.058594 176.035156 186.808594 175.960938 187.5625 175.960938 C 188.320312 175.960938 189.066406 176.035156 189.808594 176.183594 C 190.550781 176.328125 191.269531 176.546875 191.96875 176.835938 C 192.667969 177.125 193.332031 177.480469 193.960938 177.898438 C 194.589844 178.320312 195.167969 178.796875 195.703125 179.332031 C 196.238281 179.863281 196.714844 180.445312 197.136719 181.074219 C 197.554688 181.703125 197.910156 182.363281 198.199219 183.0625 C 198.488281 183.757812 198.707031 184.480469 198.855469 185.21875 C 199.003906 185.960938 199.074219 186.707031 199.074219 187.464844 Z M 199.074219 187.464844 " fill-opacity="1" fill-rule="nonzero"/></svg>