<svg xmlns="http://www.w3.org/2000/svg" xmlns:xlink="http://www.w3.org/1999/xlink" width="500" zoomAndPan="magnify" viewBox="0 0 375 374.999991" height="500" preserveAspectRatio="xMidYMid meet" version="1.0"><defs><clipPath id="7922da49ef"><path d="M 188 152 L 358.824219 152 L 358.824219 242 L 188 242 Z M 188 152 " clip-rule="nonzero"/></clipPath><clipPath id="280d44355c"><path d="M 101 188 L 202 188 L 202 343.503906 L 101 343.503906 Z M 101 188 " clip-rule="nonzero"/></clipPath><clipPath id="a2225038d8"><path d="M 16.074219 137 L 185 137 L 185 228 L 16.074219 228 Z M 16.074219 137 " clip-rule="nonzero"/></clipPath><clipPath id="7bbff2284a"><path d="M 100 31.503906 L 193 31.503906 L 193 192 L 100 192 Z M 100 31.503906 " clip-rule="nonzero"/></clipPath></defs><path fill="#ec5f5d" d="M 189.390625 190.929688 C 189.390625 190.929688 134.550781 72.53125 279.421875 44.53125 C 279.421875 44.53125 318.609375 147.273438 189.390625 190.929688 Z M 189.390625 190.929688 " fill-opacity="1" fill-rule="nonzero"/><path fill="#d83e43" d="M 201.042969 145.445312 C 204.242188 131.617188 211.441406 118.703125 221.382812 108.53125 C 217.269531 124.074219 213.269531 139.617188 209.15625 155.160156 C 217.382812 140.300781 226.523438 126.015625 236.691406 112.417969 C 233.605469 126.359375 228.921875 140.074219 222.753906 152.988281 C 234.40625 139.960938 245.144531 126.015625 254.628906 111.273438 C 246.171875 145.902344 221.953125 176.417969 189.960938 192.417969 C 187.5625 168.757812 190.875 144.644531 199.558594 122.472656 C 199.445312 130.132812 199.902344 137.902344 201.042969 145.445312 Z M 201.042969 145.445312 " fill-opacity="1" fill-rule="nonzero"/><g clip-path="url(#7922da49ef)"><path fill="#ec5f5d" d="M 188.707031 188.988281 C 188.707031 188.988281 275.421875 91.503906 358.824219 213.214844 C 358.824219 213.101562 280.21875 290.015625 188.707031 188.988281 Z M 188.707031 188.988281 " fill-opacity="1" fill-rule="nonzero"/></g><path fill="#d83e43" d="M 234.976562 181.558594 C 249.03125 179.046875 263.652344 180.417969 276.90625 185.445312 C 261.027344 187.960938 245.144531 190.359375 229.265625 192.875 C 246.171875 194.472656 262.96875 197.214844 279.421875 201.101562 C 265.367188 203.84375 250.972656 204.988281 236.691406 204.417969 C 253.257812 209.902344 270.394531 214.132812 287.644531 216.988281 C 252.457031 223.046875 214.867188 212.988281 187.5625 190.015625 C 208.242188 178.472656 231.777344 171.84375 255.429688 170.929688 C 248.34375 173.902344 241.488281 177.445312 234.976562 181.558594 Z M 234.976562 181.558594 " fill-opacity="1" fill-rule="nonzero"/><g clip-path="url(#280d44355c)"><path fill="#ec5f5d" d="M 185.621094 188.417969 C 185.621094 188.417969 252.113281 300.757812 110.789062 343.160156 C 110.789062 343.273438 61.429688 244.875 185.621094 188.417969 Z M 185.621094 188.417969 " fill-opacity="1" fill-rule="nonzero"/></g><path fill="#d83e43" d="M 178.539062 234.929688 C 176.710938 249.101562 170.882812 262.589844 161.972656 273.671875 C 164.484375 257.789062 167 241.902344 169.398438 226.015625 C 162.769531 241.671875 155.003906 256.757812 146.320312 271.386719 C 147.917969 257.101562 151.230469 243.160156 156.144531 229.671875 C 145.863281 243.84375 136.609375 258.816406 128.609375 274.359375 C 133.523438 239.046875 154.660156 206.246094 184.707031 187.160156 C 189.390625 210.472656 188.589844 234.816406 182.195312 257.671875 C 181.738281 249.902344 180.480469 242.359375 178.539062 234.929688 Z M 178.539062 234.929688 " fill-opacity="1" fill-rule="nonzero"/><g clip-path="url(#a2225038d8)"><path fill="#ec5f5d" d="M 184.820312 194.246094 C 184.820312 194.246094 93.535156 287.503906 16.074219 161.902344 C 16.074219 161.902344 98.335938 88.875 184.820312 194.246094 Z M 184.820312 194.246094 " fill-opacity="1" fill-rule="nonzero"/></g><path fill="#d83e43" d="M 138.207031 199.503906 C 124.15625 201.332031 109.53125 199.273438 96.507812 193.558594 C 112.5 191.84375 128.496094 190.132812 144.492188 188.53125 C 127.695312 186.132812 111.015625 182.589844 94.792969 177.902344 C 108.960938 175.84375 123.355469 175.386719 137.636719 176.644531 C 121.296875 170.359375 104.503906 165.332031 87.367188 161.558594 C 122.785156 157.214844 159.800781 169.101562 186.078125 193.332031 C 164.828125 203.960938 141.0625 209.332031 117.300781 209.101562 C 124.496094 206.472656 131.464844 203.273438 138.207031 199.503906 Z M 138.207031 199.503906 " fill-opacity="1" fill-rule="nonzero"/><g clip-path="url(#7bbff2284a)"><path fill="#ec5f5d" d="M 182.992188 191.046875 C 182.992188 191.046875 55.148438 164.988281 118.441406 31.730469 C 118.554688 31.730469 224.464844 61.101562 182.992188 191.046875 Z M 182.992188 191.046875 " fill-opacity="1" fill-rule="nonzero"/></g><path fill="#d83e43" d="M 153.402344 154.703125 C 144.148438 143.84375 137.980469 130.472656 135.695312 116.417969 C 145.746094 128.875 155.917969 141.445312 165.96875 153.902344 C 158.886719 138.472656 152.832031 122.589844 147.917969 106.359375 C 157.402344 117.101562 165.511719 128.988281 172.253906 141.675781 C 168.710938 124.53125 163.800781 107.617188 157.515625 91.273438 C 180.367188 118.589844 190.535156 156.300781 184.480469 191.386719 C 164.027344 179.273438 146.546875 162.246094 133.867188 142.246094 C 140.035156 146.929688 146.546875 151.160156 153.402344 154.703125 Z M 153.402344 154.703125 " fill-opacity="1" fill-rule="nonzero"/><path fill="#ec5f5d" d="M 185.050781 193.101562 C 185.050781 193.101562 315.523438 191.730469 281.476562 335.386719 C 281.589844 335.386719 171.796875 328.875 185.050781 193.101562 Z M 185.050781 193.101562 " fill-opacity="1" fill-rule="nonzero"/><path fill="#d83e43" d="M 221.722656 222.472656 C 233.035156 231.160156 241.832031 242.929688 246.972656 256.1875 C 234.519531 246.132812 221.953125 235.960938 209.5 225.902344 C 219.667969 239.503906 228.921875 253.789062 237.148438 268.644531 C 225.609375 260.074219 215.210938 250.246094 205.957031 239.273438 C 213.042969 255.273438 221.382812 270.703125 230.863281 285.445312 C 202.757812 263.503906 184.9375 228.875 183.449219 193.214844 C 205.957031 200.757812 226.636719 213.671875 243.203125 230.703125 C 236.347656 227.273438 229.148438 224.53125 221.722656 222.472656 Z M 221.722656 222.472656 " fill-opacity="1" fill-rule="nonzero"/><path fill="#f9c461" d="M 186.078125 224.300781 C 195.332031 226.246094 205.042969 222.929688 212.8125 217.558594 C 224.921875 209.214844 233.71875 195.386719 234.0625 180.644531 C 234.40625 165.902344 225.265625 150.929688 211.328125 146.132812 C 201.617188 142.816406 190.761719 144.53125 180.9375 147.386719 C 170.539062 150.472656 160.027344 155.386719 153.746094 164.1875 C 146.433594 174.359375 146.089844 188.757812 152.375 199.503906 C 157.058594 207.617188 164.941406 213.445312 172.9375 218.359375 C 176.9375 220.875 181.28125 223.273438 186.078125 224.300781 Z M 186.078125 224.300781 " fill-opacity="1" fill-rule="nonzero"/><path fill="#f09852" d="M 163.800781 178.015625 C 163.683594 178.246094 163.683594 178.359375 163.570312 178.589844 C 163.113281 179.960938 164.140625 181.789062 165.511719 182.132812 C 167.113281 182.472656 168.484375 181.675781 169.054688 180.1875 C 169.167969 179.960938 169.167969 179.84375 169.285156 179.617188 C 169.742188 178.246094 168.710938 176.417969 167.339844 176.074219 C 165.742188 175.730469 164.257812 176.53125 163.800781 178.015625 Z M 163.800781 178.015625 " fill-opacity="1" fill-rule="nonzero"/><path fill="#f09852" d="M 186.304688 206.929688 C 186.191406 207.160156 186.191406 207.273438 186.078125 207.503906 C 185.621094 208.875 186.648438 210.703125 188.019531 211.046875 C 189.621094 211.386719 190.992188 210.589844 191.5625 209.101562 C 191.675781 208.875 191.675781 208.757812 191.789062 208.53125 C 192.246094 207.160156 191.21875 205.332031 189.847656 204.988281 C 188.25 204.53125 186.761719 205.445312 186.304688 206.929688 Z M 186.304688 206.929688 " fill-opacity="1" fill-rule="nonzero"/><path fill="#f09852" d="M 181.964844 197.902344 C 185.621094 197.902344 185.621094 192.1875 181.964844 192.1875 C 178.308594 192.1875 178.308594 197.902344 181.964844 197.902344 Z M 181.964844 197.902344 " fill-opacity="1" fill-rule="nonzero"/><path fill="#f09852" d="M 203.328125 217.902344 C 206.984375 217.902344 206.984375 212.1875 203.328125 212.1875 C 199.671875 212.1875 199.671875 217.902344 203.328125 217.902344 Z M 203.328125 217.902344 " fill-opacity="1" fill-rule="nonzero"/><path fill="#f09852" d="M 224.351562 188.644531 C 224.125 188.53125 224.007812 188.53125 223.78125 188.417969 C 222.410156 187.960938 220.582031 188.988281 220.238281 190.359375 C 219.894531 191.960938 220.695312 193.332031 222.179688 193.902344 C 222.410156 194.015625 222.523438 194.015625 222.753906 194.132812 C 224.125 194.589844 225.953125 193.558594 226.292969 192.1875 C 226.75 190.472656 225.835938 189.101562 224.351562 188.644531 Z M 224.351562 188.644531 " fill-opacity="1" fill-rule="nonzero"/><path fill="#f09852" d="M 170.539062 208.1875 C 170.769531 208.300781 170.882812 208.300781 171.109375 208.417969 C 172.140625 208.757812 173.511719 208.53125 174.425781 207.960938 C 175.339844 207.386719 176.136719 206.472656 176.367188 205.445312 C 176.9375 203.046875 175.679688 200.988281 173.394531 200.1875 C 173.167969 200.074219 173.054688 200.074219 172.824219 199.960938 C 171.796875 199.617188 170.425781 199.84375 169.511719 200.417969 C 168.597656 200.988281 167.796875 201.902344 167.570312 202.929688 C 167 205.332031 168.253906 207.386719 170.539062 208.1875 Z M 170.539062 208.1875 " fill-opacity="1" fill-rule="nonzero"/><path fill="#f09852" d="M 185.507812 187.273438 C 190.992188 187.273438 190.992188 178.703125 185.507812 178.703125 C 180.023438 178.703125 180.023438 187.273438 185.507812 187.273438 Z M 185.507812 187.273438 " fill-opacity="1" fill-rule="nonzero"/><path fill="#f09852" d="M 205.386719 195.960938 C 210.871094 195.960938 210.871094 187.386719 205.386719 187.386719 C 199.902344 187.386719 199.902344 195.960938 205.386719 195.960938 Z M 205.386719 195.960938 " fill-opacity="1" fill-rule="nonzero"/><path fill="#f09852" d="M 225.609375 179.503906 C 231.09375 179.503906 231.09375 170.929688 225.609375 170.929688 C 220.011719 170.929688 220.011719 179.503906 225.609375 179.503906 Z M 225.609375 179.503906 " fill-opacity="1" fill-rule="nonzero"/><path fill="#f09852" d="M 206.527344 201.445312 C 206.414062 201.671875 206.414062 201.789062 206.300781 202.015625 C 205.957031 203.046875 206.1875 204.417969 206.757812 205.332031 C 207.328125 206.246094 208.242188 207.046875 209.269531 207.273438 C 211.671875 207.84375 213.726562 206.589844 214.527344 204.300781 C 214.640625 204.074219 214.640625 203.960938 214.753906 203.730469 C 215.097656 202.703125 214.867188 201.332031 214.296875 200.417969 C 213.726562 199.503906 212.8125 198.703125 211.785156 198.472656 C 209.386719 197.902344 207.328125 199.160156 206.527344 201.445312 Z M 206.527344 201.445312 " fill-opacity="1" fill-rule="nonzero"/><path fill="#f09852" d="M 159.570312 198.132812 C 165.054688 198.132812 165.054688 189.558594 159.570312 189.558594 C 153.972656 189.558594 153.972656 198.132812 159.570312 198.132812 Z M 159.570312 198.132812 " fill-opacity="1" fill-rule="nonzero"/></svg>