<svg xmlns="http://www.w3.org/2000/svg" xmlns:xlink="http://www.w3.org/1999/xlink" width="500" zoomAndPan="magnify" viewBox="0 0 375 374.999991" height="500" preserveAspectRatio="xMidYMid meet" version="1.0"><defs><clipPath id="0f604df421"><path d="M 25.765625 136 L 172 136 L 172 319 L 25.765625 319 Z M 25.765625 136 " clip-rule="nonzero"/></clipPath><clipPath id="daa9c9cfbf"><path d="M 124 232 L 261 232 L 261 328.46875 L 124 328.46875 Z M 124 232 " clip-rule="nonzero"/></clipPath><clipPath id="f30abc5473"><path d="M 193 46.46875 L 208 46.46875 L 208 62 L 193 62 Z M 193 46.46875 " clip-rule="nonzero"/></clipPath></defs><path fill="#ef6589" d="M 171.675781 318.992188 C 171.675781 318.992188 5.070312 92.335938 139.710938 62.511719 C 274.351562 32.683594 200.953125 312.53125 200.953125 312.53125 Z M 171.675781 318.992188 " fill-opacity="1" fill-rule="nonzero"/><g clip-path="url(#0f604df421)"><path fill="#f6a5b8" d="M 171.675781 318.992188 C 171.675781 318.992188 -25.171875 234.46875 38.757812 161.355469 C 131.101562 55.941406 171.675781 318.992188 171.675781 318.992188 Z M 171.675781 318.992188 " fill-opacity="1" fill-rule="nonzero"/></g><path fill="#ef6589" d="M 172.859375 312.640625 C 172.859375 312.640625 161.128906 51.421875 263.589844 72.742188 C 374.660156 95.890625 202.136719 306.070312 202.136719 306.070312 Z M 172.859375 312.640625 " fill-opacity="1" fill-rule="nonzero"/><path fill="#ffffff" d="M 224.84375 177.722656 C 224.84375 176.96875 221.722656 105.257812 264.34375 52.929688 L 268.21875 56.050781 C 226.890625 106.875 229.796875 176.753906 229.902344 177.398438 Z M 224.84375 177.722656 " fill-opacity="1" fill-rule="nonzero"/><path fill="#ffffff" d="M 134.546875 165.769531 C 123.136719 122.808594 97.738281 83.617188 97.523438 83.183594 L 101.71875 80.492188 C 101.933594 80.921875 127.765625 120.761719 139.390625 164.480469 Z M 134.546875 165.769531 " fill-opacity="1" fill-rule="nonzero"/><path fill="#ffffff" d="M 163.175781 147.25 C 158.546875 103.320312 145.738281 68.433594 145.632812 68.003906 L 150.257812 66.28125 C 150.367188 66.601562 163.390625 102.136719 168.125 146.714844 Z M 163.175781 147.25 " fill-opacity="1" fill-rule="nonzero"/><path fill="#ffffff" d="M 204.074219 136.484375 C 206.765625 96.859375 197.183594 58.742188 197.183594 58.417969 L 202.027344 57.234375 C 202.136719 57.667969 211.929688 96.429688 209.132812 136.914062 Z M 204.074219 136.484375 " fill-opacity="1" fill-rule="nonzero"/><path fill="#f6a5b8" d="M 169.632812 318.886719 C 169.632812 318.886719 47.476562 126.363281 180.289062 110.855469 C 313.636719 95.246094 203.640625 313.070312 203.640625 313.070312 Z M 169.632812 318.886719 " fill-opacity="1" fill-rule="nonzero"/><path fill="#f6a5b8" d="M 208.484375 314.148438 C 208.484375 314.148438 238.296875 85.769531 332.6875 154.789062 C 405.335938 207.871094 208.484375 314.148438 208.484375 314.148438 Z M 208.484375 314.148438 " fill-opacity="1" fill-rule="nonzero"/><path fill="#ef6589" d="M 173.078125 295.84375 C 173.078125 295.84375 147.136719 211.964844 153.488281 187.089844 L 178.886719 259.878906 C 178.886719 259.878906 159.839844 185.367188 179.210938 146.820312 C 179.210938 146.820312 182.226562 204.75 193.527344 249.113281 C 193.527344 249.113281 191.910156 187.523438 200.628906 170.617188 L 204.503906 251.589844 L 221.078125 196.996094 C 221.078125 196.996094 212.144531 271.398438 212.253906 292.398438 Z M 173.078125 295.84375 " fill-opacity="1" fill-rule="nonzero"/><path fill="#ef6589" d="M 146.601562 300.363281 L 78.042969 247.496094 L 117.863281 268.0625 C 117.863281 268.0625 88.480469 238.558594 75.136719 210.78125 L 120.769531 257.511719 L 93.753906 197.644531 C 93.753906 197.644531 119.585938 228.546875 132.394531 253.847656 C 132.394531 253.847656 131.210938 227.898438 124.429688 211.75 C 124.429688 211.75 151.226562 264.722656 162.636719 304.671875 Z M 146.601562 300.363281 " fill-opacity="1" fill-rule="nonzero"/><path fill="#ef6589" d="M 225.921875 292.71875 L 299.429688 247.066406 L 257.671875 263.539062 C 257.671875 263.539062 289.851562 237.160156 305.996094 210.886719 L 255.839844 252.878906 L 288.773438 195.8125 C 288.773438 195.8125 260.039062 223.914062 244.757812 247.820312 C 244.757812 247.820312 248.523438 222.191406 256.917969 206.796875 C 256.917969 206.796875 224.953125 256.757812 209.5625 295.410156 Z M 225.921875 292.71875 " fill-opacity="1" fill-rule="nonzero"/><g clip-path="url(#daa9c9cfbf)"><path fill="#9cdbdb" d="M 197.9375 327.820312 C 160.375 332.453125 143.371094 311.886719 124.644531 282.921875 L 164.035156 295.304688 L 163.929688 235.761719 L 187.390625 291.75 L 200.738281 232.53125 L 207.625 292.613281 L 243.140625 252.558594 L 224.84375 295.195312 L 260.898438 261.171875 C 260.898438 261.277344 245.402344 322.007812 197.9375 327.820312 Z M 197.9375 327.820312 " fill-opacity="1" fill-rule="nonzero"/></g><path fill="#ffffff" d="M 263.804688 49.265625 C 254.335938 51.421875 255.949219 66.496094 265.527344 64.34375 C 275 62.296875 273.382812 47.113281 263.804688 49.265625 Z M 263.804688 49.265625 " fill-opacity="1" fill-rule="nonzero"/><g clip-path="url(#f30abc5473)"><path fill="#ffffff" d="M 199.769531 46.683594 C 190.296875 48.835938 191.910156 63.910156 201.488281 61.757812 C 211.070312 59.710938 209.347656 44.53125 199.769531 46.683594 Z M 199.769531 46.683594 " fill-opacity="1" fill-rule="nonzero"/></g><path fill="#ffffff" d="M 147.246094 57.667969 C 137.773438 59.820312 139.390625 74.894531 148.96875 72.742188 C 158.546875 70.695312 156.824219 55.511719 147.246094 57.667969 Z M 147.246094 57.667969 " fill-opacity="1" fill-rule="nonzero"/><path fill="#ffffff" d="M 97.523438 71.339844 C 86.4375 73.816406 88.375 91.476562 99.566406 89 C 110.652344 86.523438 108.609375 68.863281 97.523438 71.339844 Z M 97.523438 71.339844 " fill-opacity="1" fill-rule="nonzero"/></svg>