<svg xmlns="http://www.w3.org/2000/svg" xmlns:xlink="http://www.w3.org/1999/xlink" width="500" zoomAndPan="magnify" viewBox="0 0 375 374.999991" height="500" preserveAspectRatio="xMidYMid meet" version="1.0"><defs><clipPath id="a5e9a7b7ca"><path d="M 95.589844 37.5 L 279.339844 37.5 L 279.339844 186 L 95.589844 186 Z M 95.589844 37.5 " clip-rule="nonzero"/></clipPath><clipPath id="46b568eaef"><path d="M 175 204 L 189 204 L 189 337.5 L 175 337.5 Z M 175 204 " clip-rule="nonzero"/></clipPath></defs><path fill="#7c2448" d="M 188.144531 195.808594 C 188.683594 196.0625 189.210938 196.339844 189.726562 196.644531 C 190.238281 196.953125 190.738281 197.28125 191.21875 197.636719 C 191.699219 197.988281 192.160156 198.367188 192.605469 198.765625 C 193.050781 199.167969 193.472656 199.585938 193.875 200.027344 C 194.277344 200.46875 194.660156 200.929688 195.015625 201.410156 C 195.375 201.886719 195.707031 202.382812 196.015625 202.894531 C 196.324219 203.40625 196.609375 203.929688 196.867188 204.46875 C 197.125 205.007812 197.355469 205.558594 197.558594 206.121094 C 197.761719 206.683594 197.933594 207.253906 198.082031 207.835938 C 198.230469 208.414062 198.347656 209 198.4375 209.589844 C 198.527344 210.179688 198.589844 210.773438 198.621094 211.371094 C 198.652344 211.96875 198.652344 212.566406 198.625 213.160156 C 198.597656 213.757812 198.542969 214.351562 198.457031 214.945312 C 198.371094 215.535156 198.257812 216.121094 198.113281 216.703125 C 197.972656 217.28125 197.800781 217.855469 197.601562 218.417969 C 197.402344 218.980469 197.175781 219.535156 196.921875 220.074219 C 196.667969 220.617188 196.390625 221.144531 196.082031 221.65625 C 195.777344 222.171875 195.449219 222.667969 195.09375 223.148438 C 194.742188 223.628906 194.363281 224.09375 193.964844 224.539062 C 193.5625 224.980469 193.144531 225.40625 192.703125 225.808594 C 192.261719 226.210938 191.800781 226.59375 191.324219 226.949219 C 190.84375 227.308594 190.347656 227.640625 189.839844 227.949219 C 189.328125 228.257812 188.800781 228.542969 188.261719 228.800781 C 187.722656 229.058594 187.171875 229.289062 186.609375 229.492188 C 186.050781 229.695312 185.480469 229.871094 184.898438 230.015625 C 184.320312 230.164062 183.734375 230.28125 183.144531 230.371094 C 182.554688 230.460938 181.960938 230.523438 181.363281 230.554688 C 180.769531 230.585938 180.171875 230.589844 179.574219 230.5625 C 178.976562 230.535156 178.382812 230.476562 177.792969 230.390625 C 177.199219 230.304688 176.617188 230.191406 176.035156 230.046875 C 175.457031 229.90625 174.882812 229.734375 174.320312 229.535156 C 173.757812 229.335938 173.207031 229.109375 172.664062 228.855469 C 172.125 228.601562 171.597656 228.324219 171.082031 228.015625 C 170.570312 227.710938 170.070312 227.382812 169.589844 227.027344 C 169.109375 226.671875 168.648438 226.296875 168.203125 225.898438 C 167.757812 225.496094 167.335938 225.078125 166.933594 224.636719 C 166.53125 224.195312 166.148438 223.734375 165.792969 223.253906 C 165.433594 222.777344 165.101562 222.28125 164.792969 221.769531 C 164.484375 221.257812 164.199219 220.730469 163.941406 220.191406 C 163.683594 219.652344 163.453125 219.101562 163.25 218.539062 C 163.046875 217.980469 162.871094 217.410156 162.726562 216.828125 C 162.578125 216.25 162.460938 215.664062 162.371094 215.074219 C 162.28125 214.484375 162.21875 213.890625 162.1875 213.292969 C 162.15625 212.695312 162.15625 212.097656 162.183594 211.5 C 162.207031 210.90625 162.265625 210.308594 162.351562 209.71875 C 162.4375 209.128906 162.550781 208.542969 162.695312 207.960938 C 162.835938 207.382812 163.007812 206.808594 163.207031 206.246094 C 163.40625 205.683594 163.632812 205.128906 163.886719 204.589844 C 164.140625 204.046875 164.417969 203.519531 164.722656 203.007812 C 165.03125 202.492188 165.359375 201.996094 165.714844 201.515625 C 166.066406 201.03125 166.445312 200.570312 166.84375 200.125 C 167.242188 199.679688 167.664062 199.257812 168.105469 198.855469 C 168.546875 198.453125 169.007812 198.070312 169.484375 197.714844 C 169.964844 197.355469 170.457031 197.023438 170.96875 196.714844 C 171.480469 196.402344 172.007812 196.121094 172.546875 195.863281 C 173.085938 195.605469 173.636719 195.375 174.195312 195.171875 C 174.757812 194.96875 175.328125 194.792969 175.910156 194.644531 C 176.488281 194.5 177.070312 194.378906 177.664062 194.289062 C 178.253906 194.199219 178.847656 194.140625 179.445312 194.109375 C 180.039062 194.078125 180.636719 194.074219 181.234375 194.101562 C 181.832031 194.128906 182.425781 194.1875 183.015625 194.269531 C 183.605469 194.355469 184.191406 194.472656 184.773438 194.613281 C 185.351562 194.757812 185.925781 194.929688 186.488281 195.128906 C 187.050781 195.328125 187.601562 195.554688 188.144531 195.808594 Z M 188.144531 195.808594 " fill-opacity="1" fill-rule="nonzero"/><g clip-path="url(#a5e9a7b7ca)"><path fill="#f9c461" d="M 279.285156 127.089844 C 279.285156 127.089844 257.675781 135.050781 234.84375 152.320312 C 253.820312 133.824219 273.40625 110.128906 273.46875 90.898438 C 265.203125 90.042969 256.449219 95 247.941406 102.902344 C 258.59375 82.753906 262.695312 65.179688 249.902344 59.238281 C 240.535156 54.890625 230.800781 66.21875 221.867188 83.613281 C 227.375 61.261719 227.128906 43.074219 213.171875 40.4375 C 202.523438 38.417969 195.726562 53.238281 191.320312 73.8125 C 191.382812 53.300781 187.832031 37.867188 177.179688 37.5 C 165.976562 37.132812 161.019531 48.15625 159.671875 64.078125 C 155.753906 52.933594 150.367188 46.195312 142.960938 47.421875 C 125.578125 50.359375 128.820312 77.671875 137.878906 107.1875 C 129.066406 90.46875 118.414062 77.121094 106.355469 75.957031 C 102.558594 95.308594 117.984375 123.355469 133.410156 145.523438 C 114.558594 125.007812 95.644531 113.496094 95.644531 113.496094 C 102.007812 144.113281 160.34375 185.449219 160.34375 185.449219 C 157.957031 180.121094 160.714844 180.183594 160.714844 180.183594 L 163.160156 177.550781 L 169.710938 185.140625 L 176.445312 177.792969 L 183.484375 177.550781 L 187.585938 184.957031 L 197.808594 179.324219 L 199.707031 182.386719 C 199.707031 182.386719 205.214844 178.285156 213.296875 171.609375 C 209.316406 175.894531 205.582031 180.425781 202.09375 185.386719 C 202.09375 185.386719 267.222656 155.871094 279.285156 127.089844 Z M 279.285156 127.089844 " fill-opacity="1" fill-rule="nonzero"/></g><path fill="#f09852" d="M 143.941406 179.691406 C 143.941406 179.691406 153.855469 140.929688 184.769531 146.808594 C 215.621094 152.6875 213.90625 183.917969 213.90625 183.917969 L 184.097656 209.085938 Z M 143.941406 179.691406 " fill-opacity="1" fill-rule="nonzero"/><path fill="#f09852" d="M 150.0625 172.039062 L 127.65625 150.726562 L 150.980469 168.425781 L 138.796875 133.335938 L 156.917969 162.117188 L 153.980469 115.332031 L 164.078125 155.933594 L 168.121094 151.035156 L 173.261719 105.289062 L 177.242188 150.296875 C 177.242188 150.296875 185.074219 151.707031 185.382812 151.09375 C 185.6875 150.480469 199.398438 106.207031 199.398438 106.207031 L 192.667969 152.195312 L 197.625 155.015625 L 222.722656 111.597656 L 203.867188 158.199219 L 206.195312 162.300781 L 244.332031 120.964844 L 210.050781 167.382812 L 211.089844 171.609375 L 243.597656 151.953125 L 211.398438 176.261719 Z M 150.0625 172.039062 " fill-opacity="1" fill-rule="nonzero"/><path fill="#7c2448" d="M 163.101562 208.414062 C 163.101562 208.414062 144.246094 194.878906 139.164062 174.304688 C 139.164062 174.304688 147.675781 172.40625 167.996094 187.835938 C 167.996094 187.835938 173.199219 167.996094 182.933594 159.667969 C 182.933594 159.667969 194.929688 174.121094 195.480469 185.511719 C 195.480469 185.511719 204.480469 173.875 222.539062 175.285156 C 222.539062 175.285156 217.824219 196.53125 191.933594 213.128906 Z M 163.101562 208.414062 " fill-opacity="1" fill-rule="nonzero"/><g clip-path="url(#46b568eaef)"><path fill="#7c2448" d="M 180.851562 337.5 C 180.667969 337.5 180.421875 337.5 180.238281 337.4375 C 178.097656 337.132812 176.628906 335.113281 176.933594 332.96875 C 185.566406 276.875 175.21875 210.128906 175.097656 209.453125 C 174.730469 207.308594 176.199219 205.289062 178.402344 204.921875 C 180.546875 204.554688 182.566406 206.023438 182.933594 208.230469 C 183.054688 208.902344 193.585938 276.8125 184.769531 334.132812 C 184.464844 336.089844 182.75 337.5 180.851562 337.5 Z M 180.851562 337.5 " fill-opacity="1" fill-rule="nonzero"/></g></svg>