<svg xmlns="http://www.w3.org/2000/svg" xmlns:xlink="http://www.w3.org/1999/xlink" width="500" zoomAndPan="magnify" viewBox="0 0 375 374.999991" height="500" preserveAspectRatio="xMidYMid meet" version="1.0"><path fill="#edceff" d="M 199.597656 194.277344 C 346.0625 276.25 236.945312 362.242188 191.34375 200.792969 C 236.945312 362.351562 98.949219 346.0625 180.921875 199.597656 C 98.949219 346.0625 12.957031 236.945312 174.40625 191.34375 C 12.851562 236.945312 29.136719 98.949219 175.601562 180.921875 C 29.136719 98.949219 138.253906 12.957031 183.855469 174.40625 C 138.253906 12.851562 276.25 29.136719 194.277344 175.601562 C 276.25 29.136719 362.242188 138.253906 200.792969 183.855469 C 362.351562 138.253906 346.0625 276.25 199.597656 194.277344 Z M 199.597656 194.277344 " fill-opacity="1" fill-rule="nonzero"/><path fill="#fffed2" d="M 208.066406 187.652344 C 208.066406 188.324219 208.03125 188.988281 207.96875 189.65625 C 207.902344 190.320312 207.804688 190.980469 207.671875 191.636719 C 207.542969 192.292969 207.382812 192.941406 207.1875 193.578125 C 206.992188 194.21875 206.769531 194.847656 206.511719 195.464844 C 206.257812 196.082031 205.972656 196.6875 205.65625 197.277344 C 205.339844 197.867188 204.996094 198.4375 204.625 198.996094 C 204.253906 199.550781 203.855469 200.085938 203.433594 200.601562 C 203.007812 201.121094 202.558594 201.613281 202.085938 202.085938 C 201.613281 202.558594 201.121094 203.007812 200.601562 203.433594 C 200.085938 203.855469 199.550781 204.253906 198.996094 204.625 C 198.4375 204.996094 197.867188 205.339844 197.277344 205.65625 C 196.6875 205.972656 196.082031 206.257812 195.464844 206.511719 C 194.847656 206.769531 194.21875 206.992188 193.578125 207.1875 C 192.941406 207.382812 192.292969 207.542969 191.636719 207.671875 C 190.980469 207.804688 190.320312 207.902344 189.65625 207.96875 C 188.988281 208.03125 188.324219 208.066406 187.652344 208.066406 C 186.984375 208.066406 186.320312 208.03125 185.652344 207.96875 C 184.988281 207.902344 184.328125 207.804688 183.671875 207.671875 C 183.015625 207.542969 182.367188 207.382812 181.730469 207.1875 C 181.089844 206.992188 180.460938 206.769531 179.84375 206.511719 C 179.226562 206.257812 178.621094 205.972656 178.03125 205.65625 C 177.441406 205.339844 176.871094 204.996094 176.3125 204.625 C 175.757812 204.253906 175.222656 203.855469 174.703125 203.433594 C 174.1875 203.007812 173.691406 202.558594 173.21875 202.085938 C 172.746094 201.613281 172.300781 201.121094 171.875 200.601562 C 171.453125 200.085938 171.054688 199.550781 170.683594 198.996094 C 170.3125 198.4375 169.96875 197.867188 169.652344 197.277344 C 169.335938 196.6875 169.050781 196.082031 168.796875 195.464844 C 168.539062 194.847656 168.316406 194.21875 168.121094 193.578125 C 167.925781 192.941406 167.765625 192.292969 167.632812 191.636719 C 167.503906 190.980469 167.40625 190.320312 167.339844 189.65625 C 167.273438 188.988281 167.242188 188.324219 167.242188 187.652344 C 167.242188 186.984375 167.273438 186.320312 167.339844 185.652344 C 167.40625 184.988281 167.503906 184.328125 167.632812 183.671875 C 167.765625 183.015625 167.925781 182.367188 168.121094 181.730469 C 168.316406 181.089844 168.539062 180.460938 168.796875 179.84375 C 169.050781 179.226562 169.335938 178.621094 169.652344 178.03125 C 169.96875 177.441406 170.3125 176.871094 170.683594 176.3125 C 171.054688 175.757812 171.453125 175.222656 171.875 174.703125 C 172.300781 174.1875 172.746094 173.691406 173.21875 173.21875 C 173.691406 172.746094 174.1875 172.300781 174.703125 171.875 C 175.222656 171.453125 175.757812 171.054688 176.3125 170.683594 C 176.871094 170.3125 177.441406 169.96875 178.03125 169.652344 C 178.621094 169.335938 179.226562 169.050781 179.84375 168.796875 C 180.460938 168.539062 181.089844 168.316406 181.730469 168.121094 C 182.367188 167.925781 183.015625 167.765625 183.671875 167.632812 C 184.328125 167.503906 184.988281 167.40625 185.652344 167.339844 C 186.320312 167.273438 186.984375 167.242188 187.652344 167.242188 C 188.324219 167.242188 188.988281 167.273438 189.65625 167.339844 C 190.320312 167.40625 190.980469 167.503906 191.636719 167.632812 C 192.292969 167.765625 192.941406 167.925781 193.578125 168.121094 C 194.21875 168.316406 194.847656 168.539062 195.464844 168.796875 C 196.082031 169.050781 196.6875 169.335938 197.277344 169.652344 C 197.867188 169.96875 198.4375 170.3125 198.996094 170.683594 C 199.550781 171.054688 200.085938 171.453125 200.601562 171.875 C 201.121094 172.300781 201.613281 172.746094 202.085938 173.21875 C 202.558594 173.691406 203.007812 174.1875 203.433594 174.703125 C 203.855469 175.222656 204.253906 175.757812 204.625 176.3125 C 204.996094 176.871094 205.339844 177.441406 205.65625 178.03125 C 205.972656 178.621094 206.257812 179.226562 206.511719 179.84375 C 206.769531 180.460938 206.992188 181.089844 207.1875 181.730469 C 207.382812 182.367188 207.542969 183.015625 207.671875 183.671875 C 207.804688 184.328125 207.902344 184.988281 207.96875 185.652344 C 208.03125 186.320312 208.066406 186.984375 208.066406 187.652344 Z M 208.066406 187.652344 " fill-opacity="1" fill-rule="nonzero"/></svg>