<svg xmlns="http://www.w3.org/2000/svg" xmlns:xlink="http://www.w3.org/1999/xlink" width="500" zoomAndPan="magnify" viewBox="0 0 375 374.999991" height="500" preserveAspectRatio="xMidYMid meet" version="1.0"><path fill="#c4e2ff" d="M 241.5 151.476562 C 253.300781 148.753906 261.59375 146.6875 269.96875 144.933594 C 280.578125 142.722656 291.242188 142.773438 301.945312 144.582031 C 309.101562 145.785156 315.328125 148.9375 320.394531 153.789062 C 327.695312 160.789062 332.207031 169.097656 328.675781 179.773438 C 328.007812 181.785156 327.535156 183.878906 326.726562 186.863281 C 329.183594 189.753906 332.15625 192.734375 334.535156 196.136719 C 347.382812 214.441406 340.265625 231.394531 322.328125 239.703125 C 313.839844 243.640625 304.667969 244.566406 295.558594 243.023438 C 283.957031 241.0625 272.46875 238.367188 260.953125 235.867188 C 255.957031 234.78125 251.089844 232.402344 244.691406 234.640625 C 248.367188 238.941406 251.535156 242.476562 254.53125 246.164062 C 265.074219 259.128906 274.875 272.628906 279.351562 288.996094 C 281.15625 295.617188 282.332031 302.71875 282.046875 309.523438 C 281.417969 324.160156 269.578125 332.496094 255.261719 329.171875 C 250.644531 328.097656 246.117188 326.59375 240.84375 325.089844 C 238.882812 328.03125 237.339844 330.765625 235.402344 333.1875 C 227.945312 342.421875 219.546875 344.59375 208.203125 340.671875 C 201.332031 338.304688 196.191406 333.800781 191.742188 328.269531 C 177.980469 311.15625 169.984375 291.519531 165.746094 270.117188 C 164.738281 265.042969 165.863281 259.285156 161.347656 254.640625 C 157.320312 258.394531 153.472656 262.074219 149.523438 265.644531 C 133.730469 279.890625 115.832031 290.304688 95.09375 295.550781 C 88.238281 297.289062 81.433594 297.929688 74.488281 295.757812 C 62.949219 292.136719 57.609375 285.777344 56.785156 273.730469 C 56.5625 270.574219 56.980469 267.382812 57.125 263.460938 C 52.179688 261.511719 47.167969 259.808594 42.394531 257.570312 C 31.925781 252.691406 27.910156 243.378906 31.101562 232.324219 C 32.960938 225.886719 36.898438 220.914062 41.792969 216.585938 C 51.171875 208.304688 61.863281 202.167969 73.730469 198.375 C 84.914062 194.804688 96.324219 191.953125 107.523438 188.824219 C 103.074219 183.210938 102.945312 183.488281 97.710938 181.144531 C 86.472656 176.109375 75.078125 171.320312 64.296875 165.421875 C 58.316406 162.148438 52.886719 157.363281 48.292969 152.273438 C 44.839844 148.441406 42.238281 143.3125 40.757812 138.3125 C 36.519531 124.121094 42.917969 111.246094 56.640625 105.582031 C 61.039062 103.761719 65.867188 103.019531 71.007812 101.65625 C 71.597656 100.78125 72.667969 99.550781 73.296875 98.125 C 81.316406 80.242188 97.542969 73.765625 115.375 81.707031 C 128.378906 87.488281 138.753906 96.738281 147.742188 107.597656 C 152.035156 112.777344 156.128906 118.128906 160.734375 123.9375 C 162.214844 108.957031 163.234375 95.195312 165.050781 81.523438 C 166.542969 70.246094 170.363281 59.546875 177.496094 50.519531 C 181.09375 45.964844 185.359375 41.621094 190.132812 38.378906 C 201.699219 30.515625 213.800781 31.953125 223.730469 41.726562 C 226.335938 44.292969 228.507812 47.3125 230.914062 50.179688 C 235.3125 49.289062 239.457031 48.058594 243.683594 47.652344 C 255.902344 46.476562 265.675781 52.429688 270.425781 63.96875 C 274.652344 74.238281 274.886719 84.820312 271.945312 95.507812 C 267.757812 110.65625 260.914062 124.523438 251.78125 137.292969 C 249.046875 141.101562 246.300781 144.90625 241.578125 151.460938 Z M 241.5 151.476562 " fill-opacity="1" fill-rule="nonzero"/><path fill="#ffefed" d="M 176.800781 208.917969 C 166.386719 206.984375 161.871094 199.449219 159.898438 190.054688 C 156.574219 174.226562 169.015625 160.800781 184.730469 163.652344 C 190.851562 164.765625 197.121094 167.171875 202.367188 170.507812 C 212.871094 177.179688 214.496094 191.53125 206.695312 201.292969 C 199.03125 210.894531 189.519531 213.328125 176.800781 208.917969 Z M 176.800781 208.917969 " fill-opacity="1" fill-rule="nonzero"/></svg>