<svg xmlns="http://www.w3.org/2000/svg" xmlns:xlink="http://www.w3.org/1999/xlink" width="500" zoomAndPan="magnify" viewBox="0 0 375 374.999991" height="500" preserveAspectRatio="xMidYMid meet" version="1.0"><path fill="#d9d9d9" d="M 137.144531 97.035156 C 133.996094 83.132812 134.113281 67.625 141.898438 55.742188 C 149.679688 43.859375 166.910156 37.5 178.972656 45.164062 C 186.402344 49.859375 190.324219 58.414062 193.234375 66.734375 C 200.78125 88.183594 204.226562 110.882812 203.453125 133.636719 C 212.664062 104.105469 229.894531 77.667969 253.1875 57.285156 C 259.070312 52.175781 266.378906 47.183594 274.042969 48.671875 C 281.289062 50.097656 286.339844 57.34375 287.351562 64.652344 C 288.363281 71.960938 286.164062 79.390625 283.546875 86.28125 C 273.566406 112.128906 256.929688 134.886719 235.300781 152.234375 C 257.34375 135.597656 288.421875 131.617188 313.96875 142.253906 C 325.675781 147.125 337.5 157.941406 334.886719 170.296875 C 332.746094 180.460938 321.933594 186.105469 312.070312 189.429688 C 289.253906 197.097656 265.011719 199.652344 241.125 196.976562 C 262.632812 218.664062 284.675781 241.066406 296.144531 269.40625 C 299.652344 278.082031 301.847656 288.777344 296.085938 296.144531 C 291.628906 301.910156 283.609375 303.691406 276.300781 303.214844 C 260.851562 302.207031 247.007812 292.699219 237.203125 280.695312 C 227.398438 268.695312 221.101562 254.316406 214.921875 240.113281 C 212.722656 254.253906 214.625 268.636719 214.503906 282.894531 C 214.386719 297.15625 211.773438 312.308594 202.265625 323.003906 C 192.757812 333.695312 174.578125 337.5 164.058594 327.816406 C 157.34375 321.636719 155.324219 312.011719 154.492188 302.917969 C 152.414062 279.746094 155.859375 256.453125 164.652344 234.945312 C 145.046875 265.78125 111 286.996094 74.695312 290.917969 C 67.863281 291.628906 60.433594 291.628906 54.851562 287.707031 C 49.503906 283.90625 46.949219 277.070312 46.710938 270.476562 C 46.117188 252.355469 60.496094 237.441406 74.933594 226.507812 C 93.769531 212.308594 114.445312 200.78125 136.429688 192.28125 C 115.160156 194.007812 92.996094 191.6875 74.160156 181.648438 C 55.324219 171.605469 40.292969 153.007812 38.273438 131.738281 C 37.5 123.535156 38.808594 114.921875 43.5625 108.207031 C 50.929688 97.988281 65.128906 94.601562 77.546875 96.738281 C 89.964844 98.878906 101.078125 105.535156 111.890625 112.011719 C 127.636719 121.515625 143.382812 130.84375 159.007812 140.53125 C 148.609375 127.816406 141.125 112.960938 137.144531 97.035156 Z M 137.144531 97.035156 " fill-opacity="1" fill-rule="nonzero"/><path fill="#ff852e" d="M 191.214844 219.082031 C 196.265625 218.25 201.316406 216.464844 205.234375 213.140625 C 215.335938 204.703125 215.753906 189.550781 215.335938 176.359375 C 215.277344 173.984375 215.160156 171.546875 213.851562 169.585938 C 212.542969 167.625 210.167969 166.554688 207.96875 165.722656 C 150.335938 143.859375 145.582031 226.566406 191.214844 219.082031 Z M 191.214844 219.082031 " fill-opacity="1" fill-rule="nonzero"/></svg>