<svg xmlns="http://www.w3.org/2000/svg" xmlns:xlink="http://www.w3.org/1999/xlink" width="500" zoomAndPan="magnify" viewBox="0 0 375 374.999991" height="500" preserveAspectRatio="xMidYMid meet" version="1.0"><path fill="#ebc2ac" d="M 195.457031 189.347656 C 195.457031 189.347656 253.628906 328.734375 197.261719 326.496094 C 133.394531 323.925781 195.457031 189.347656 195.457031 189.347656 Z M 195.457031 189.347656 " fill-opacity="1" fill-rule="nonzero"/><path fill="#ebc2ac" d="M 194.484375 193.195312 C 194.484375 193.195312 149.457031 337.363281 107.722656 299.40625 C 60.4375 256.394531 194.484375 193.195312 194.484375 193.195312 Z M 194.484375 193.195312 " fill-opacity="1" fill-rule="nonzero"/><path fill="#ebc2ac" d="M 191.265625 195.5 C 191.265625 195.5 64.089844 277.011719 56.527344 221.109375 C 47.953125 157.765625 191.265625 195.5 191.265625 195.5 Z M 191.265625 195.5 " fill-opacity="1" fill-rule="nonzero"/><path fill="#ebc2ac" d="M 187.308594 195.230469 C 187.308594 195.230469 37.5 175.90625 67.644531 128.222656 C 101.792969 74.210938 187.308594 195.230469 187.308594 195.230469 Z M 187.308594 195.230469 " fill-opacity="1" fill-rule="nonzero"/><path fill="#ebc2ac" d="M 184.445312 192.457031 C 184.445312 192.457031 82.125 81.375 135.863281 64.214844 C 196.753906 44.773438 184.445312 192.457031 184.445312 192.457031 Z M 184.445312 192.457031 " fill-opacity="1" fill-rule="nonzero"/><path fill="#ebc2ac" d="M 184.0625 188.503906 C 184.0625 188.503906 177.066406 37.625 229.265625 59.023438 C 288.410156 83.277344 184.0625 188.503906 184.0625 188.503906 Z M 184.0625 188.503906 " fill-opacity="1" fill-rule="nonzero"/><path fill="#ebc2ac" d="M 186.308594 185.238281 C 186.308594 185.238281 277.917969 65.152344 304.152344 115.097656 C 333.871094 171.710938 186.308594 185.238281 186.308594 185.238281 Z M 186.308594 185.238281 " fill-opacity="1" fill-rule="nonzero"/><path fill="#ebc2ac" d="M 190.109375 184.144531 C 190.109375 184.144531 337.480469 151.0625 325.472656 206.183594 C 311.867188 268.636719 190.109375 184.144531 190.109375 184.144531 Z M 190.109375 184.144531 " fill-opacity="1" fill-rule="nonzero"/><path fill="#ebc2ac" d="M 193.730469 185.773438 C 193.730469 185.773438 327.890625 255.160156 283.261719 289.660156 C 232.695312 328.761719 193.730469 185.773438 193.730469 185.773438 Z M 193.730469 185.773438 " fill-opacity="1" fill-rule="nonzero"/><path fill="#ff9d00" d="M 223.097656 188.46875 C 223.097656 189.644531 223.039062 190.8125 222.925781 191.980469 C 222.8125 193.148438 222.640625 194.304688 222.410156 195.457031 C 222.183594 196.605469 221.898438 197.742188 221.5625 198.867188 C 221.222656 199.988281 220.828125 201.089844 220.382812 202.175781 C 219.933594 203.257812 219.433594 204.316406 218.882812 205.351562 C 218.332031 206.386719 217.730469 207.390625 217.082031 208.367188 C 216.433594 209.34375 215.738281 210.28125 214.996094 211.191406 C 214.253906 212.097656 213.472656 212.964844 212.644531 213.792969 C 211.816406 214.621094 210.953125 215.410156 210.050781 216.152344 C 209.144531 216.898438 208.207031 217.59375 207.234375 218.246094 C 206.265625 218.898438 205.261719 219.5 204.230469 220.054688 C 203.199219 220.605469 202.144531 221.109375 201.066406 221.558594 C 199.984375 222.003906 198.886719 222.398438 197.765625 222.742188 C 196.648438 223.082031 195.515625 223.367188 194.371094 223.59375 C 193.222656 223.824219 192.066406 223.996094 190.90625 224.109375 C 189.742188 224.226562 188.574219 224.28125 187.40625 224.28125 C 186.238281 224.28125 185.070312 224.226562 183.910156 224.109375 C 182.746094 223.996094 181.589844 223.824219 180.445312 223.59375 C 179.296875 223.367188 178.164062 223.082031 177.046875 222.742188 C 175.925781 222.398438 174.828125 222.003906 173.75 221.558594 C 172.667969 221.109375 171.613281 220.605469 170.582031 220.054688 C 169.550781 219.5 168.550781 218.898438 167.578125 218.246094 C 166.605469 217.59375 165.667969 216.898438 164.765625 216.152344 C 163.859375 215.410156 162.996094 214.621094 162.167969 213.792969 C 161.34375 212.964844 160.558594 212.097656 159.816406 211.191406 C 159.074219 210.28125 158.378906 209.34375 157.730469 208.367188 C 157.082031 207.390625 156.480469 206.386719 155.929688 205.351562 C 155.378906 204.316406 154.878906 203.257812 154.433594 202.175781 C 153.984375 201.089844 153.589844 199.988281 153.253906 198.867188 C 152.914062 197.742188 152.628906 196.605469 152.402344 195.457031 C 152.171875 194.304688 152 193.148438 151.886719 191.980469 C 151.773438 190.8125 151.714844 189.644531 151.714844 188.46875 C 151.714844 187.296875 151.773438 186.128906 151.886719 184.960938 C 152 183.792969 152.171875 182.632812 152.402344 181.484375 C 152.628906 180.332031 152.914062 179.195312 153.253906 178.074219 C 153.589844 176.953125 153.984375 175.847656 154.433594 174.765625 C 154.878906 173.683594 155.378906 172.621094 155.929688 171.589844 C 156.480469 170.554688 157.082031 169.550781 157.730469 168.574219 C 158.378906 167.597656 159.074219 166.65625 159.816406 165.75 C 160.558594 164.84375 161.34375 163.976562 162.167969 163.148438 C 162.996094 162.316406 163.859375 161.53125 164.765625 160.785156 C 165.667969 160.042969 166.605469 159.34375 167.578125 158.691406 C 168.550781 158.042969 169.550781 157.4375 170.582031 156.886719 C 171.613281 156.332031 172.667969 155.832031 173.75 155.382812 C 174.828125 154.933594 175.925781 154.539062 177.046875 154.199219 C 178.164062 153.859375 179.296875 153.574219 180.445312 153.347656 C 181.589844 153.117188 182.746094 152.945312 183.910156 152.832031 C 185.070312 152.714844 186.238281 152.65625 187.40625 152.65625 C 188.574219 152.65625 189.742188 152.714844 190.90625 152.832031 C 192.066406 152.945312 193.222656 153.117188 194.371094 153.347656 C 195.515625 153.574219 196.648438 153.859375 197.765625 154.199219 C 198.886719 154.539062 199.984375 154.933594 201.066406 155.382812 C 202.144531 155.832031 203.199219 156.332031 204.230469 156.886719 C 205.261719 157.4375 206.265625 158.042969 207.234375 158.691406 C 208.207031 159.34375 209.144531 160.042969 210.050781 160.785156 C 210.953125 161.53125 211.816406 162.316406 212.644531 163.148438 C 213.472656 163.976562 214.253906 164.84375 214.996094 165.75 C 215.738281 166.65625 216.433594 167.597656 217.082031 168.574219 C 217.730469 169.550781 218.332031 170.554688 218.882812 171.589844 C 219.433594 172.621094 219.933594 173.683594 220.382812 174.765625 C 220.828125 175.847656 221.222656 176.953125 221.5625 178.074219 C 221.898438 179.195312 222.183594 180.332031 222.410156 181.484375 C 222.640625 182.632812 222.8125 183.792969 222.925781 184.960938 C 223.039062 186.128906 223.097656 187.296875 223.097656 188.46875 Z M 223.097656 188.46875 " fill-opacity="1" fill-rule="nonzero"/></svg>