<svg xmlns="http://www.w3.org/2000/svg" xmlns:xlink="http://www.w3.org/1999/xlink" width="500" zoomAndPan="magnify" viewBox="0 0 375 374.999991" height="500" preserveAspectRatio="xMidYMid meet" version="1.0"><defs><clipPath id="48cd8e293c"><path d="M 37.5 305 L 108 305 L 108 340.648438 L 37.5 340.648438 Z M 37.5 305 " clip-rule="nonzero"/></clipPath></defs><path fill="#fbb03b" d="M 183.507812 193.347656 C 406.6875 162.675781 290.460938 250.433594 192.601562 186.445312 C 290.460938 250.4375 296.886719 395.902344 192.074219 175.085938 C 296.882812 395.902344 177.492188 312.523438 201.425781 181.566406 C 177.492188 312.523438 41.082031 363.488281 212.1875 177.617188 C 41.101562 363.527344 83.535156 224.28125 208.808594 188.511719 C 83.535156 224.277344 -7.234375 110.46875 215.953125 197.453125 C -7.234375 110.46875 138.414062 107.636719 204.554688 197.652344 C 138.414062 107.636719 218.773438 -13.644531 198.222656 207.15625 C 218.777344 -13.644531 266.332031 123.875 194.496094 196.40625 C 266.332031 123.875 406.6875 162.675781 183.507812 193.347656 Z M 183.507812 193.347656 " fill-opacity="1" fill-rule="nonzero"/><g clip-path="url(#48cd8e293c)"><path fill="#fbb03b" d="M -24.566406 419.25 C 189.46875 322.894531 106.925781 436.574219 -18.109375 410.324219 C 106.925781 436.574219 153.996094 568.96875 -21.816406 399.988281 C 153.996094 568.96875 20.113281 525.828125 -11.304688 403.371094 C 20.113281 525.828125 -91.335938 611.40625 -2.589844 396.640625 C -91.335938 611.40625 -91.550781 471.066406 -2.550781 407.640625 C -91.550781 471.066406 -207.523438 391.527344 6.53125 413.875 C -207.523438 391.523438 -73.769531 347.867188 -3.960938 417.3125 C -73.769531 347.867188 -33.875 213.105469 -7.070312 427.867188 C -33.875 213.105469 48.824219 326.640625 -13.550781 418.96875 C 48.824219 326.640625 189.46875 322.894531 -24.566406 419.25 Z M -24.566406 419.25 " fill-opacity="1" fill-rule="nonzero"/></g></svg>