<svg xmlns="http://www.w3.org/2000/svg" xmlns:xlink="http://www.w3.org/1999/xlink" width="500" zoomAndPan="magnify" viewBox="0 0 375 374.999991" height="500" preserveAspectRatio="xMidYMid meet" version="1.0"><defs><clipPath id="a3a061af54"><path d="M 179 178 L 202 178 L 202 201 L 179 201 Z M 179 178 " clip-rule="nonzero"/></clipPath><clipPath id="99fbf56f80"><path d="M 179.910156 189.304688 C 179.910156 187.859375 180.1875 186.472656 180.738281 185.140625 C 181.289062 183.808594 182.074219 182.632812 183.09375 181.613281 C 184.113281 180.589844 185.289062 179.804688 186.621094 179.253906 C 187.953125 178.703125 189.335938 178.425781 190.777344 178.425781 C 192.21875 178.425781 193.605469 178.703125 194.9375 179.253906 C 196.269531 179.804688 197.445312 180.589844 198.464844 181.613281 C 199.484375 182.632812 200.269531 183.808594 200.820312 185.140625 C 201.371094 186.472656 201.648438 187.859375 201.648438 189.304688 C 201.648438 190.746094 201.371094 192.132812 200.820312 193.464844 C 200.269531 194.796875 199.484375 195.976562 198.464844 196.996094 C 197.445312 198.015625 196.269531 198.800781 194.9375 199.351562 C 193.605469 199.90625 192.21875 200.179688 190.777344 200.179688 C 189.335938 200.179688 187.953125 199.90625 186.621094 199.351562 C 185.289062 198.800781 184.113281 198.015625 183.09375 196.996094 C 182.074219 195.976562 181.289062 194.796875 180.738281 193.464844 C 180.1875 192.132812 179.910156 190.746094 179.910156 189.304688 Z M 179.910156 189.304688 " clip-rule="nonzero"/></clipPath><clipPath id="b0087030ab"><path d="M 185 183 L 197 183 L 197 195 L 185 195 Z M 185 183 " clip-rule="nonzero"/></clipPath><clipPath id="f16a36a49e"><path d="M 179.910156 189.304688 C 179.910156 187.859375 180.1875 186.472656 180.738281 185.140625 C 181.289062 183.808594 182.074219 182.632812 183.09375 181.613281 C 184.113281 180.589844 185.289062 179.804688 186.621094 179.253906 C 187.953125 178.703125 189.335938 178.425781 190.777344 178.425781 C 192.21875 178.425781 193.605469 178.703125 194.9375 179.253906 C 196.269531 179.804688 197.445312 180.589844 198.464844 181.613281 C 199.484375 182.632812 200.269531 183.808594 200.820312 185.140625 C 201.371094 186.472656 201.648438 187.859375 201.648438 189.304688 C 201.648438 190.746094 201.371094 192.132812 200.820312 193.464844 C 200.269531 194.796875 199.484375 195.976562 198.464844 196.996094 C 197.445312 198.015625 196.269531 198.800781 194.9375 199.351562 C 193.605469 199.90625 192.21875 200.179688 190.777344 200.179688 C 189.335938 200.179688 187.953125 199.90625 186.621094 199.351562 C 185.289062 198.800781 184.113281 198.015625 183.09375 196.996094 C 182.074219 195.976562 181.289062 194.796875 180.738281 193.464844 C 180.1875 192.132812 179.910156 190.746094 179.910156 189.304688 Z M 179.910156 189.304688 " clip-rule="nonzero"/></clipPath></defs><path fill="#6FC86F" d="M 201.90625 200.308594 C 332.71875 315.304688 124.789062 358.683594 181.332031 204.582031 C 124.789062 358.683594 19.335938 174.152344 170.851562 186.324219 C 19.207031 174.152344 162.054688 16.683594 184.957031 170.785156 C 161.925781 16.683594 355.75 103.964844 204.105469 179.460938 C 355.882812 103.964844 332.851562 315.304688 201.90625 200.308594 Z M 201.90625 200.308594 " fill-opacity="1" fill-rule="nonzero"/><g clip-path="url(#a3a061af54)"><g clip-path="url(#99fbf56f80)"><path fill="#fffbce" d="M 179.910156 178.425781 L 201.648438 178.425781 L 201.648438 200.179688 L 179.910156 200.179688 Z M 179.910156 178.425781 " fill-opacity="1" fill-rule="nonzero"/><path fill="#fffbce" d="M 201.648438 189.304688 C 201.648438 190.019531 201.578125 190.726562 201.4375 191.425781 C 201.300781 192.125 201.09375 192.804688 200.820312 193.464844 C 200.546875 194.125 200.210938 194.753906 199.816406 195.347656 C 199.417969 195.941406 198.96875 196.488281 198.464844 196.996094 C 197.960938 197.5 197.410156 197.949219 196.816406 198.347656 C 196.222656 198.746094 195.597656 199.078125 194.9375 199.351562 C 194.277344 199.625 193.597656 199.832031 192.898438 199.972656 C 192.199219 200.113281 191.492188 200.179688 190.777344 200.179688 C 190.066406 200.179688 189.359375 200.113281 188.660156 199.972656 C 187.957031 199.832031 187.277344 199.625 186.621094 199.351562 C 185.960938 199.078125 185.332031 198.746094 184.742188 198.347656 C 184.148438 197.949219 183.597656 197.5 183.09375 196.996094 C 182.589844 196.488281 182.136719 195.941406 181.742188 195.347656 C 181.34375 194.753906 181.011719 194.125 180.738281 193.464844 C 180.464844 192.804688 180.257812 192.125 180.117188 191.425781 C 179.980469 190.726562 179.910156 190.019531 179.910156 189.304688 C 179.910156 188.589844 179.980469 187.882812 180.117188 187.179688 C 180.257812 186.480469 180.464844 185.800781 180.738281 185.140625 C 181.011719 184.480469 181.34375 183.855469 181.742188 183.261719 C 182.136719 182.667969 182.589844 182.117188 183.09375 181.613281 C 183.597656 181.105469 184.148438 180.65625 184.742188 180.257812 C 185.332031 179.863281 185.960938 179.527344 186.621094 179.253906 C 187.277344 178.980469 187.957031 178.773438 188.660156 178.632812 C 189.359375 178.496094 190.066406 178.425781 190.777344 178.425781 C 191.492188 178.425781 192.199219 178.496094 192.898438 178.632812 C 193.597656 178.773438 194.277344 178.980469 194.9375 179.253906 C 195.597656 179.527344 196.222656 179.863281 196.816406 180.257812 C 197.410156 180.65625 197.960938 181.105469 198.464844 181.613281 C 198.96875 182.117188 199.417969 182.667969 199.816406 183.261719 C 200.210938 183.855469 200.546875 184.480469 200.820312 185.140625 C 201.09375 185.800781 201.300781 186.480469 201.4375 187.179688 C 201.578125 187.882812 201.648438 188.589844 201.648438 189.304688 Z M 201.648438 189.304688 " fill-opacity="1" fill-rule="nonzero"/></g></g><g clip-path="url(#b0087030ab)"><g clip-path="url(#f16a36a49e)"><path fill="#fffbce" d="M 196.214844 189.304688 C 196.214844 189.660156 196.179688 190.015625 196.109375 190.363281 C 196.039062 190.714844 195.9375 191.054688 195.800781 191.382812 C 195.664062 191.714844 195.496094 192.027344 195.296875 192.324219 C 195.097656 192.621094 194.875 192.898438 194.621094 193.148438 C 194.371094 193.402344 194.09375 193.628906 193.796875 193.824219 C 193.5 194.023438 193.1875 194.191406 192.859375 194.328125 C 192.527344 194.464844 192.1875 194.566406 191.839844 194.636719 C 191.488281 194.707031 191.136719 194.742188 190.777344 194.742188 C 190.421875 194.742188 190.070312 194.707031 189.71875 194.636719 C 189.367188 194.566406 189.027344 194.464844 188.699219 194.328125 C 188.371094 194.191406 188.054688 194.023438 187.761719 193.824219 C 187.464844 193.628906 187.1875 193.402344 186.9375 193.148438 C 186.683594 192.898438 186.457031 192.621094 186.261719 192.324219 C 186.0625 192.027344 185.894531 191.714844 185.757812 191.382812 C 185.621094 191.054688 185.519531 190.714844 185.449219 190.363281 C 185.378906 190.015625 185.34375 189.660156 185.34375 189.304688 C 185.34375 188.945312 185.378906 188.59375 185.449219 188.242188 C 185.519531 187.890625 185.621094 187.550781 185.757812 187.222656 C 185.894531 186.890625 186.0625 186.578125 186.261719 186.28125 C 186.457031 185.984375 186.683594 185.710938 186.9375 185.457031 C 187.1875 185.203125 187.464844 184.980469 187.761719 184.78125 C 188.054688 184.582031 188.371094 184.414062 188.699219 184.277344 C 189.027344 184.140625 189.367188 184.039062 189.71875 183.96875 C 190.070312 183.898438 190.421875 183.863281 190.777344 183.863281 C 191.136719 183.863281 191.488281 183.898438 191.839844 183.96875 C 192.1875 184.039062 192.527344 184.140625 192.859375 184.277344 C 193.1875 184.414062 193.5 184.582031 193.796875 184.78125 C 194.09375 184.980469 194.371094 185.203125 194.621094 185.457031 C 194.875 185.710938 195.097656 185.984375 195.296875 186.28125 C 195.496094 186.578125 195.664062 186.890625 195.800781 187.222656 C 195.9375 187.550781 196.039062 187.890625 196.109375 188.242188 C 196.179688 188.59375 196.214844 188.945312 196.214844 189.304688 Z M 196.214844 189.304688 " fill-opacity="1" fill-rule="nonzero"/></g></g><path fill="#b58d66" d="M 183.035156 176.3125 C 183.207031 176.683594 183.359375 177.058594 183.496094 177.433594 C 183.632812 177.8125 183.746094 178.1875 183.839844 178.5625 C 183.933594 178.933594 184.007812 179.292969 184.054688 179.644531 C 184.105469 179.996094 184.132812 180.332031 184.132812 180.648438 C 184.136719 180.964844 184.113281 181.261719 184.066406 181.53125 C 184.023438 181.804688 183.957031 182.046875 183.863281 182.261719 C 183.773438 182.476562 183.664062 182.65625 183.53125 182.808594 C 183.398438 182.957031 183.246094 183.070312 183.078125 183.148438 C 182.90625 183.230469 182.722656 183.273438 182.523438 183.277344 C 182.324219 183.28125 182.113281 183.25 181.890625 183.183594 C 181.667969 183.113281 181.4375 183.007812 181.203125 182.871094 C 180.964844 182.730469 180.726562 182.558594 180.484375 182.351562 C 180.242188 182.144531 180.003906 181.910156 179.765625 181.648438 C 179.527344 181.382812 179.296875 181.097656 179.074219 180.785156 C 178.851562 180.472656 178.636719 180.144531 178.433594 179.796875 C 178.234375 179.449219 178.046875 179.089844 177.875 178.71875 C 177.699219 178.351562 177.546875 177.976562 177.410156 177.597656 C 177.273438 177.21875 177.160156 176.84375 177.066406 176.472656 C 176.972656 176.101562 176.898438 175.738281 176.851562 175.386719 C 176.800781 175.035156 176.777344 174.699219 176.773438 174.382812 C 176.773438 174.066406 176.792969 173.773438 176.839844 173.5 C 176.882812 173.230469 176.953125 172.984375 177.042969 172.773438 C 177.132812 172.558594 177.246094 172.375 177.378906 172.226562 C 177.507812 172.074219 177.660156 171.960938 177.828125 171.882812 C 178 171.804688 178.183594 171.761719 178.382812 171.753906 C 178.582031 171.75 178.792969 171.78125 179.015625 171.851562 C 179.238281 171.917969 179.46875 172.023438 179.707031 172.164062 C 179.941406 172.304688 180.179688 172.476562 180.421875 172.679688 C 180.664062 172.886719 180.902344 173.121094 181.140625 173.386719 C 181.378906 173.648438 181.609375 173.9375 181.832031 174.25 C 182.058594 174.558594 182.269531 174.890625 182.472656 175.238281 C 182.675781 175.585938 182.863281 175.941406 183.035156 176.3125 Z M 183.035156 176.3125 " fill-opacity="1" fill-rule="nonzero"/><path fill="#b58d66" d="M 175.351562 186.777344 C 175.722656 186.945312 176.082031 187.128906 176.433594 187.324219 C 176.785156 187.523438 177.117188 187.730469 177.429688 187.949219 C 177.742188 188.171875 178.035156 188.398438 178.300781 188.632812 C 178.566406 188.867188 178.804688 189.101562 179.015625 189.339844 C 179.222656 189.582031 179.398438 189.816406 179.542969 190.050781 C 179.683594 190.285156 179.792969 190.515625 179.863281 190.738281 C 179.933594 190.957031 179.96875 191.167969 179.964844 191.371094 C 179.964844 191.570312 179.925781 191.753906 179.847656 191.925781 C 179.769531 192.097656 179.660156 192.25 179.511719 192.382812 C 179.363281 192.519531 179.183594 192.632812 178.96875 192.726562 C 178.757812 192.820312 178.515625 192.890625 178.242188 192.9375 C 177.972656 192.988281 177.679688 193.011719 177.363281 193.015625 C 177.046875 193.019531 176.710938 192.996094 176.359375 192.953125 C 176.007812 192.90625 175.644531 192.839844 175.273438 192.75 C 174.898438 192.664062 174.523438 192.550781 174.144531 192.421875 C 173.761719 192.289062 173.386719 192.140625 173.015625 191.972656 C 172.644531 191.804688 172.28125 191.625 171.933594 191.425781 C 171.582031 191.230469 171.25 191.019531 170.9375 190.800781 C 170.621094 190.582031 170.332031 190.351562 170.066406 190.121094 C 169.800781 189.886719 169.5625 189.648438 169.351562 189.410156 C 169.144531 189.171875 168.96875 188.933594 168.824219 188.699219 C 168.683594 188.464844 168.574219 188.234375 168.503906 188.015625 C 168.433594 187.792969 168.398438 187.582031 168.398438 187.382812 C 168.402344 187.179688 168.441406 186.996094 168.519531 186.824219 C 168.597656 186.65625 168.707031 186.503906 168.855469 186.367188 C 169.003906 186.234375 169.183594 186.117188 169.398438 186.027344 C 169.609375 185.933594 169.851562 185.859375 170.121094 185.8125 C 170.394531 185.761719 170.6875 185.738281 171.003906 185.734375 C 171.320312 185.734375 171.65625 185.753906 172.007812 185.796875 C 172.359375 185.84375 172.722656 185.910156 173.09375 186 C 173.46875 186.089844 173.84375 186.199219 174.222656 186.328125 C 174.601562 186.460938 174.980469 186.609375 175.351562 186.777344 Z M 175.351562 186.777344 " fill-opacity="1" fill-rule="nonzero"/><path fill="#b58d66" d="M 179.609375 200.570312 C 179.980469 200.738281 180.34375 200.917969 180.691406 201.117188 C 181.042969 201.316406 181.375 201.523438 181.6875 201.742188 C 182.003906 201.964844 182.292969 202.191406 182.558594 202.425781 C 182.828125 202.660156 183.0625 202.894531 183.273438 203.132812 C 183.480469 203.371094 183.65625 203.609375 183.800781 203.84375 C 183.945312 204.078125 184.050781 204.308594 184.121094 204.53125 C 184.195312 204.75 184.226562 204.960938 184.226562 205.160156 C 184.222656 205.363281 184.183594 205.546875 184.105469 205.71875 C 184.03125 205.886719 183.917969 206.042969 183.769531 206.175781 C 183.621094 206.308594 183.441406 206.425781 183.226562 206.519531 C 183.015625 206.613281 182.773438 206.683594 182.503906 206.730469 C 182.234375 206.78125 181.9375 206.804688 181.621094 206.808594 C 181.304688 206.8125 180.96875 206.789062 180.617188 206.746094 C 180.265625 206.699219 179.902344 206.632812 179.53125 206.542969 C 179.15625 206.453125 178.78125 206.34375 178.402344 206.214844 C 178.023438 206.082031 177.648438 205.933594 177.273438 205.765625 C 176.902344 205.597656 176.542969 205.417969 176.191406 205.21875 C 175.84375 205.023438 175.511719 204.8125 175.195312 204.59375 C 174.882812 204.371094 174.589844 204.144531 174.324219 203.910156 C 174.058594 203.679688 173.820312 203.441406 173.613281 203.203125 C 173.402344 202.964844 173.226562 202.726562 173.085938 202.492188 C 172.941406 202.257812 172.832031 202.027344 172.761719 201.808594 C 172.691406 201.585938 172.65625 201.375 172.660156 201.175781 C 172.660156 200.972656 172.703125 200.789062 172.777344 200.617188 C 172.855469 200.449219 172.96875 200.296875 173.113281 200.160156 C 173.261719 200.027344 173.441406 199.910156 173.65625 199.816406 C 173.871094 199.726562 174.109375 199.652344 174.382812 199.605469 C 174.652344 199.554688 174.945312 199.53125 175.261719 199.527344 C 175.578125 199.527344 175.914062 199.546875 176.265625 199.589844 C 176.617188 199.636719 176.980469 199.703125 177.351562 199.792969 C 177.726562 199.882812 178.101562 199.992188 178.484375 200.121094 C 178.863281 200.253906 179.238281 200.402344 179.609375 200.570312 Z M 179.609375 200.570312 " fill-opacity="1" fill-rule="nonzero"/><path fill="#b58d66" d="M 198.039062 192.09375 C 198.101562 192.269531 198.128906 192.457031 198.117188 192.65625 C 198.105469 192.855469 198.058594 193.0625 197.96875 193.277344 C 197.882812 193.496094 197.761719 193.714844 197.601562 193.941406 C 197.445312 194.164062 197.25 194.386719 197.027344 194.613281 C 196.800781 194.835938 196.546875 195.054688 196.265625 195.269531 C 195.984375 195.484375 195.679688 195.691406 195.351562 195.890625 C 195.019531 196.085938 194.675781 196.273438 194.3125 196.445312 C 193.949219 196.617188 193.578125 196.773438 193.195312 196.914062 C 192.8125 197.054688 192.425781 197.179688 192.039062 197.285156 C 191.652344 197.386719 191.269531 197.472656 190.890625 197.535156 C 190.511719 197.597656 190.144531 197.640625 189.792969 197.660156 C 189.4375 197.679688 189.101562 197.675781 188.785156 197.652344 C 188.46875 197.628906 188.179688 197.582031 187.910156 197.515625 C 187.644531 197.449219 187.410156 197.359375 187.203125 197.25 C 186.996094 197.144531 186.824219 197.015625 186.6875 196.871094 C 186.546875 196.726562 186.449219 196.566406 186.382812 196.390625 C 186.316406 196.214844 186.292969 196.027344 186.300781 195.828125 C 186.3125 195.628906 186.363281 195.421875 186.449219 195.207031 C 186.535156 194.988281 186.660156 194.769531 186.816406 194.542969 C 186.976562 194.320312 187.167969 194.097656 187.394531 193.871094 C 187.617188 193.648438 187.871094 193.429688 188.152344 193.214844 C 188.4375 193 188.742188 192.792969 189.070312 192.59375 C 189.398438 192.398438 189.746094 192.210938 190.109375 192.039062 C 190.46875 191.867188 190.84375 191.710938 191.226562 191.570312 C 191.609375 191.429688 191.992188 191.304688 192.382812 191.199219 C 192.769531 191.097656 193.152344 191.011719 193.53125 190.949219 C 193.910156 190.886719 194.273438 190.84375 194.628906 190.824219 C 194.984375 190.804688 195.316406 190.808594 195.632812 190.832031 C 195.949219 190.855469 196.242188 190.902344 196.507812 190.96875 C 196.773438 191.035156 197.011719 191.125 197.21875 191.234375 C 197.421875 191.339844 197.59375 191.46875 197.734375 191.613281 C 197.871094 191.757812 197.972656 191.917969 198.039062 192.09375 Z M 198.039062 192.09375 " fill-opacity="1" fill-rule="nonzero"/><path fill="#b58d66" d="M 199.464844 180.882812 C 199.53125 181.03125 199.566406 181.191406 199.570312 181.363281 C 199.570312 181.539062 199.539062 181.722656 199.476562 181.917969 C 199.414062 182.109375 199.316406 182.3125 199.191406 182.519531 C 199.0625 182.726562 198.90625 182.9375 198.71875 183.148438 C 198.535156 183.363281 198.324219 183.574219 198.085938 183.785156 C 197.847656 183.992188 197.589844 184.199219 197.308594 184.394531 C 197.03125 184.59375 196.734375 184.785156 196.421875 184.964844 C 196.109375 185.144531 195.789062 185.3125 195.457031 185.464844 C 195.128906 185.621094 194.792969 185.757812 194.453125 185.882812 C 194.117188 186.003906 193.78125 186.109375 193.449219 186.195312 C 193.117188 186.28125 192.796875 186.351562 192.480469 186.398438 C 192.167969 186.445312 191.871094 186.46875 191.589844 186.476562 C 191.304688 186.480469 191.042969 186.464844 190.804688 186.429688 C 190.5625 186.394531 190.347656 186.339844 190.160156 186.261719 C 189.96875 186.1875 189.808594 186.089844 189.675781 185.976562 C 189.546875 185.863281 189.445312 185.734375 189.378906 185.589844 C 189.308594 185.441406 189.273438 185.28125 189.273438 185.109375 C 189.269531 184.933594 189.300781 184.75 189.363281 184.554688 C 189.425781 184.359375 189.523438 184.160156 189.648438 183.953125 C 189.777344 183.746094 189.933594 183.535156 190.121094 183.320312 C 190.304688 183.109375 190.519531 182.898438 190.753906 182.6875 C 190.992188 182.480469 191.25 182.273438 191.53125 182.074219 C 191.8125 181.875 192.105469 181.6875 192.417969 181.507812 C 192.730469 181.328125 193.050781 181.160156 193.382812 181.003906 C 193.714844 180.851562 194.046875 180.710938 194.386719 180.589844 C 194.722656 180.464844 195.058594 180.363281 195.390625 180.273438 C 195.722656 180.1875 196.046875 180.121094 196.359375 180.074219 C 196.671875 180.027344 196.96875 180 197.253906 179.996094 C 197.535156 179.988281 197.796875 180.003906 198.035156 180.042969 C 198.277344 180.078125 198.492188 180.132812 198.683594 180.210938 C 198.871094 180.285156 199.03125 180.378906 199.164062 180.492188 C 199.296875 180.605469 199.394531 180.738281 199.464844 180.882812 Z M 199.464844 180.882812 " fill-opacity="1" fill-rule="nonzero"/><path fill="#b58d66" d="M 210.578125 183.90625 C 210.9375 183.960938 211.292969 184.03125 211.644531 184.117188 C 211.992188 184.203125 212.328125 184.300781 212.652344 184.414062 C 212.976562 184.527344 213.285156 184.648438 213.570312 184.785156 C 213.855469 184.921875 214.121094 185.0625 214.355469 185.214844 C 214.59375 185.367188 214.804688 185.527344 214.984375 185.691406 C 215.164062 185.851562 215.3125 186.019531 215.429688 186.1875 C 215.542969 186.355469 215.625 186.523438 215.671875 186.691406 C 215.71875 186.859375 215.726562 187.023438 215.703125 187.183594 C 215.679688 187.34375 215.621094 187.496094 215.523438 187.640625 C 215.429688 187.789062 215.304688 187.921875 215.140625 188.050781 C 214.980469 188.175781 214.789062 188.289062 214.570312 188.390625 C 214.347656 188.492188 214.101562 188.582031 213.828125 188.65625 C 213.554688 188.730469 213.261719 188.785156 212.949219 188.828125 C 212.636719 188.871094 212.308594 188.898438 211.964844 188.90625 C 211.621094 188.917969 211.269531 188.910156 210.910156 188.886719 C 210.550781 188.863281 210.191406 188.824219 209.832031 188.769531 C 209.46875 188.714844 209.113281 188.644531 208.765625 188.558594 C 208.414062 188.472656 208.078125 188.371094 207.753906 188.261719 C 207.429688 188.148438 207.125 188.023438 206.839844 187.890625 C 206.550781 187.753906 206.289062 187.609375 206.050781 187.457031 C 205.8125 187.304688 205.605469 187.148438 205.425781 186.984375 C 205.246094 186.820312 205.097656 186.65625 204.980469 186.484375 C 204.867188 186.316406 204.785156 186.148438 204.738281 185.980469 C 204.691406 185.8125 204.679688 185.648438 204.707031 185.492188 C 204.730469 185.332031 204.789062 185.179688 204.882812 185.03125 C 204.976562 184.886719 205.105469 184.75 205.265625 184.625 C 205.429688 184.5 205.617188 184.382812 205.839844 184.28125 C 206.0625 184.179688 206.308594 184.09375 206.582031 184.019531 C 206.851562 183.945312 207.144531 183.886719 207.460938 183.84375 C 207.773438 183.800781 208.101562 183.777344 208.445312 183.765625 C 208.789062 183.757812 209.140625 183.761719 209.5 183.785156 C 209.855469 183.808594 210.21875 183.847656 210.578125 183.90625 Z M 210.578125 183.90625 " fill-opacity="1" fill-rule="nonzero"/><path fill="#b58d66" d="M 204.226562 196.953125 C 204.332031 197.074219 204.410156 197.21875 204.457031 197.386719 C 204.507812 197.554688 204.527344 197.738281 204.519531 197.945312 C 204.507812 198.148438 204.472656 198.367188 204.40625 198.601562 C 204.339844 198.835938 204.246094 199.082031 204.125 199.335938 C 204.003906 199.589844 203.855469 199.851562 203.683594 200.117188 C 203.511719 200.382812 203.316406 200.652344 203.101562 200.917969 C 202.886719 201.183594 202.652344 201.449219 202.402344 201.707031 C 202.152344 201.964844 201.886719 202.210938 201.609375 202.449219 C 201.332031 202.6875 201.046875 202.910156 200.757812 203.121094 C 200.464844 203.332031 200.171875 203.523438 199.875 203.695312 C 199.578125 203.871094 199.285156 204.023438 198.996094 204.152344 C 198.707031 204.28125 198.429688 204.386719 198.15625 204.46875 C 197.886719 204.550781 197.632812 204.609375 197.390625 204.640625 C 197.148438 204.667969 196.925781 204.671875 196.722656 204.652344 C 196.519531 204.628906 196.339844 204.582031 196.183594 204.507812 C 196.023438 204.433594 195.894531 204.335938 195.789062 204.214844 C 195.683594 204.089844 195.605469 203.945312 195.558594 203.78125 C 195.507812 203.613281 195.488281 203.429688 195.496094 203.222656 C 195.503906 203.019531 195.542969 202.800781 195.609375 202.566406 C 195.675781 202.332031 195.769531 202.085938 195.890625 201.832031 C 196.011719 201.578125 196.160156 201.316406 196.332031 201.050781 C 196.503906 200.785156 196.695312 200.515625 196.914062 200.25 C 197.128906 199.980469 197.359375 199.71875 197.613281 199.460938 C 197.863281 199.203125 198.128906 198.957031 198.40625 198.71875 C 198.683594 198.480469 198.964844 198.253906 199.257812 198.046875 C 199.550781 197.835938 199.84375 197.644531 200.140625 197.472656 C 200.4375 197.296875 200.730469 197.144531 201.019531 197.015625 C 201.308594 196.886719 201.585938 196.78125 201.855469 196.699219 C 202.128906 196.617188 202.382812 196.558594 202.625 196.527344 C 202.867188 196.5 203.089844 196.492188 203.292969 196.515625 C 203.496094 196.539062 203.675781 196.585938 203.832031 196.660156 C 203.988281 196.734375 204.121094 196.832031 204.226562 196.953125 Z M 204.226562 196.953125 " fill-opacity="1" fill-rule="nonzero"/><path fill="#b58d66" d="M 198.035156 170.003906 C 198.105469 170.152344 198.140625 170.3125 198.140625 170.484375 C 198.144531 170.660156 198.113281 170.84375 198.050781 171.039062 C 197.988281 171.234375 197.890625 171.433594 197.761719 171.640625 C 197.636719 171.847656 197.480469 172.058594 197.292969 172.273438 C 197.109375 172.484375 196.894531 172.695312 196.660156 172.90625 C 196.421875 173.113281 196.164062 173.320312 195.882812 173.519531 C 195.601562 173.714844 195.308594 173.90625 194.996094 174.085938 C 194.683594 174.265625 194.363281 174.433594 194.03125 174.589844 C 193.699219 174.742188 193.367188 174.882812 193.027344 175.003906 C 192.691406 175.125 192.355469 175.230469 192.023438 175.316406 C 191.691406 175.40625 191.367188 175.472656 191.054688 175.519531 C 190.742188 175.566406 190.445312 175.59375 190.160156 175.597656 C 189.878906 175.605469 189.617188 175.589844 189.378906 175.550781 C 189.136719 175.515625 188.921875 175.460938 188.730469 175.382812 C 188.542969 175.308594 188.382812 175.214844 188.25 175.101562 C 188.117188 174.984375 188.019531 174.855469 187.949219 174.710938 C 187.882812 174.5625 187.847656 174.402344 187.84375 174.230469 C 187.84375 174.054688 187.875 173.871094 187.9375 173.675781 C 188 173.484375 188.097656 173.28125 188.222656 173.074219 C 188.351562 172.867188 188.507812 172.65625 188.691406 172.445312 C 188.878906 172.230469 189.089844 172.019531 189.328125 171.808594 C 189.566406 171.601562 189.824219 171.394531 190.105469 171.199219 C 190.382812 171 190.679688 170.808594 190.992188 170.628906 C 191.300781 170.449219 191.625 170.28125 191.957031 170.128906 C 192.285156 169.972656 192.621094 169.835938 192.957031 169.710938 C 193.296875 169.589844 193.632812 169.484375 193.964844 169.398438 C 194.296875 169.3125 194.617188 169.242188 194.933594 169.195312 C 195.246094 169.148438 195.542969 169.125 195.824219 169.117188 C 196.109375 169.113281 196.367188 169.128906 196.609375 169.164062 C 196.851562 169.199219 197.066406 169.253906 197.253906 169.332031 C 197.445312 169.40625 197.605469 169.503906 197.738281 169.617188 C 197.867188 169.730469 197.96875 169.859375 198.035156 170.003906 Z M 198.035156 170.003906 " fill-opacity="1" fill-rule="nonzero"/></svg>