<svg xmlns="http://www.w3.org/2000/svg" xmlns:xlink="http://www.w3.org/1999/xlink" width="500" zoomAndPan="magnify" viewBox="0 0 375 374.999991" height="500" preserveAspectRatio="xMidYMid meet" version="1.0"><defs><clipPath id="4ea8a29386"><path d="M 67 59 L 307 59 L 307 316 L 67 316 Z M 67 59 " clip-rule="nonzero"/></clipPath><clipPath id="051abe28a0"><path d="M 188.046875 -114 L 488.742188 186.695312 L 186.453125 488.984375 L -114.242188 188.289062 Z M 188.046875 -114 " clip-rule="nonzero"/></clipPath><clipPath id="150d8c065f"><path d="M 188.046875 -114 L 488.742188 186.695312 L 186.453125 488.984375 L -114.242188 188.289062 Z M 188.046875 -114 " clip-rule="nonzero"/></clipPath><clipPath id="f9b1c4f018"><path d="M 188.046875 -114 L 488.742188 186.695312 L 186.453125 488.984375 L -114.242188 188.289062 Z M 188.046875 -114 " clip-rule="nonzero"/></clipPath><clipPath id="8e186ae368"><path d="M 169 170 L 205 170 L 205 205 L 169 205 Z M 169 170 " clip-rule="nonzero"/></clipPath><clipPath id="78162a2a68"><path d="M 188.046875 -114 L 488.742188 186.695312 L 186.453125 488.984375 L -114.242188 188.289062 Z M 188.046875 -114 " clip-rule="nonzero"/></clipPath><clipPath id="de42aca673"><path d="M 188.046875 -114 L 488.742188 186.695312 L 186.453125 488.984375 L -114.242188 188.289062 Z M 188.046875 -114 " clip-rule="nonzero"/></clipPath><clipPath id="a27f92524c"><path d="M 188.046875 -114 L 488.742188 186.695312 L 186.453125 488.984375 L -114.242188 188.289062 Z M 188.046875 -114 " clip-rule="nonzero"/></clipPath></defs><g clip-path="url(#4ea8a29386)"><g clip-path="url(#051abe28a0)"><g clip-path="url(#150d8c065f)"><g clip-path="url(#f9b1c4f018)"><path fill="#fab2ff" d="M 207.230469 175.882812 C 377.988281 76.765625 297.355469 187.171875 198.75 187.53125 C 297.449219 187.265625 378.273438 297.164062 207.304688 199.070312 C 378.273438 297.164062 242.433594 282.84375 193.0625 197.496094 C 242.527344 282.75 187.582031 408.03125 187.371094 210.632812 C 187.675781 407.9375 132.375 283.117188 181.515625 197.507812 C 132.375 283.117188 -3.488281 298.21875 167.269531 199.101562 C -3.488281 298.21875 77.144531 187.816406 175.75 187.457031 C 77.050781 187.722656 -3.777344 77.820312 167.195312 175.917969 C -3.777344 77.820312 132.066406 92.144531 181.4375 177.488281 C 131.972656 92.238281 186.917969 -33.042969 187.128906 164.355469 C 186.824219 -32.953125 242.125 91.867188 192.984375 177.476562 C 242.125 91.867188 377.894531 76.671875 207.230469 175.882812 Z M 207.230469 175.882812 " fill-opacity="1" fill-rule="nonzero"/></g></g></g></g><g clip-path="url(#8e186ae368)"><g clip-path="url(#78162a2a68)"><g clip-path="url(#de42aca673)"><g clip-path="url(#a27f92524c)"><path fill="#fffbce" d="M 199.484375 199.820312 C 199.082031 200.222656 198.660156 200.605469 198.21875 200.96875 C 197.777344 201.328125 197.320312 201.667969 196.847656 201.984375 C 196.375 202.300781 195.886719 202.59375 195.382812 202.863281 C 194.882812 203.132812 194.367188 203.375 193.84375 203.59375 C 193.316406 203.8125 192.78125 204.003906 192.234375 204.167969 C 191.691406 204.335938 191.140625 204.472656 190.582031 204.585938 C 190.023438 204.695312 189.460938 204.78125 188.894531 204.835938 C 188.328125 204.890625 187.757812 204.921875 187.1875 204.921875 C 186.621094 204.921875 186.050781 204.894531 185.484375 204.839844 C 184.917969 204.785156 184.355469 204.699219 183.796875 204.589844 C 183.238281 204.480469 182.6875 204.339844 182.144531 204.175781 C 181.597656 204.011719 181.0625 203.820312 180.539062 203.605469 C 180.011719 203.386719 179.5 203.144531 178.996094 202.875 C 178.496094 202.609375 178.007812 202.316406 177.535156 202 C 177.0625 201.683594 176.605469 201.34375 176.164062 200.984375 C 175.726562 200.625 175.304688 200.242188 174.902344 199.839844 C 174.5 199.4375 174.117188 199.015625 173.757812 198.578125 C 173.398438 198.136719 173.058594 197.679688 172.742188 197.207031 C 172.425781 196.734375 172.136719 196.246094 171.867188 195.746094 C 171.597656 195.242188 171.355469 194.730469 171.140625 194.203125 C 170.921875 193.679688 170.730469 193.144531 170.566406 192.597656 C 170.402344 192.054688 170.261719 191.503906 170.152344 190.945312 C 170.042969 190.386719 169.957031 189.824219 169.902344 189.257812 C 169.847656 188.691406 169.820312 188.121094 169.820312 187.554688 C 169.820312 186.984375 169.851562 186.417969 169.90625 185.851562 C 169.960938 185.28125 170.046875 184.71875 170.15625 184.160156 C 170.269531 183.605469 170.40625 183.050781 170.574219 182.507812 C 170.738281 181.960938 170.929688 181.425781 171.148438 180.902344 C 171.367188 180.375 171.613281 179.859375 171.878906 179.359375 C 172.148438 178.855469 172.441406 178.367188 172.757812 177.894531 C 173.074219 177.421875 173.414062 176.964844 173.777344 176.523438 C 174.136719 176.082031 174.519531 175.660156 174.921875 175.257812 C 175.324219 174.855469 175.746094 174.472656 176.1875 174.113281 C 176.628906 173.75 177.085938 173.410156 177.558594 173.09375 C 178.03125 172.777344 178.519531 172.484375 179.023438 172.214844 C 179.523438 171.949219 180.039062 171.703125 180.566406 171.484375 C 181.089844 171.269531 181.625 171.074219 182.171875 170.910156 C 182.714844 170.746094 183.269531 170.605469 183.824219 170.492188 C 184.382812 170.382812 184.945312 170.296875 185.511719 170.242188 C 186.082031 170.1875 186.648438 170.15625 187.21875 170.15625 C 187.785156 170.15625 188.355469 170.183594 188.921875 170.238281 C 189.488281 170.296875 190.050781 170.378906 190.609375 170.488281 C 191.167969 170.597656 191.71875 170.738281 192.261719 170.902344 C 192.808594 171.066406 193.34375 171.257812 193.867188 171.476562 C 194.394531 171.691406 194.90625 171.933594 195.410156 172.203125 C 195.910156 172.472656 196.398438 172.761719 196.871094 173.078125 C 197.34375 173.394531 197.800781 173.734375 198.242188 174.09375 C 198.679688 174.453125 199.101562 174.835938 199.503906 175.238281 C 199.90625 175.640625 200.289062 176.0625 200.648438 176.5 C 201.007812 176.941406 201.347656 177.398438 201.664062 177.871094 C 201.980469 178.34375 202.269531 178.832031 202.539062 179.332031 C 202.808594 179.835938 203.050781 180.347656 203.265625 180.875 C 203.484375 181.398438 203.675781 181.933594 203.839844 182.480469 C 204.003906 183.023438 204.144531 183.578125 204.253906 184.132812 C 204.363281 184.691406 204.449219 185.253906 204.503906 185.820312 C 204.558594 186.386719 204.585938 186.957031 204.585938 187.523438 C 204.585938 188.09375 204.554688 188.664062 204.5 189.230469 C 204.445312 189.796875 204.359375 190.359375 204.25 190.917969 C 204.136719 191.476562 204 192.027344 203.832031 192.570312 C 203.667969 193.117188 203.476562 193.652344 203.257812 194.179688 C 203.039062 194.703125 202.792969 195.21875 202.527344 195.722656 C 202.257812 196.222656 201.964844 196.710938 201.648438 197.183594 C 201.332031 197.65625 200.992188 198.113281 200.628906 198.554688 C 200.269531 198.996094 199.886719 199.417969 199.484375 199.820312 Z M 199.484375 199.820312 " fill-opacity="1" fill-rule="nonzero"/></g></g></g></g></svg>