<svg xmlns="http://www.w3.org/2000/svg" xmlns:xlink="http://www.w3.org/1999/xlink" width="500" zoomAndPan="magnify" viewBox="0 0 375 374.999991" height="500" preserveAspectRatio="xMidYMid meet" version="1.0"><path fill="#e1c785" d="M 205.800781 124.261719 C 232.394531 32.875 196.105469 26.78125 190.980469 121.769531 C 151.089844 19.027344 105.382812 36.058594 141.949219 139.910156 C 76.160156 71.230469 52.613281 99.476562 132.394531 151.539062 C 23.527344 134.785156 15.355469 182.832031 123.667969 203.050781 C 31.285156 225.621094 44.027344 260.234375 128.929688 217.171875 C 59.953125 303.023438 97.488281 334.175781 169.097656 250.542969 C 142.503906 341.929688 178.792969 348.023438 183.917969 253.035156 C 223.808594 355.777344 269.515625 338.746094 232.949219 234.898438 C 298.738281 303.574219 322.285156 275.328125 242.503906 223.265625 C 351.371094 240.019531 359.542969 191.972656 251.230469 171.757812 C 343.613281 149.1875 330.871094 114.570312 245.96875 157.632812 C 315.082031 71.644531 277.546875 40.628906 205.800781 124.261719 Z M 205.800781 124.261719 " fill-opacity="1" fill-rule="nonzero"/><path fill="#ffffff" d="M 224.085938 190.035156 C 224.085938 191.234375 224.023438 192.433594 223.90625 193.628906 C 223.789062 194.824219 223.613281 196.011719 223.378906 197.191406 C 223.144531 198.371094 222.851562 199.535156 222.503906 200.683594 C 222.15625 201.835938 221.75 202.964844 221.289062 204.074219 C 220.832031 205.1875 220.316406 206.269531 219.75 207.332031 C 219.183594 208.390625 218.566406 209.421875 217.898438 210.417969 C 217.230469 211.417969 216.515625 212.382812 215.753906 213.3125 C 214.988281 214.242188 214.183594 215.128906 213.332031 215.980469 C 212.484375 216.828125 211.59375 217.636719 210.664062 218.398438 C 209.734375 219.160156 208.769531 219.875 207.773438 220.542969 C 206.773438 221.210938 205.742188 221.828125 204.683594 222.394531 C 203.621094 222.960938 202.535156 223.472656 201.425781 223.933594 C 200.316406 224.394531 199.183594 224.796875 198.035156 225.148438 C 196.882812 225.496094 195.71875 225.789062 194.539062 226.023438 C 193.363281 226.257812 192.175781 226.433594 190.976562 226.550781 C 189.78125 226.667969 188.582031 226.726562 187.378906 226.726562 C 186.179688 226.726562 184.980469 226.667969 183.78125 226.550781 C 182.585938 226.433594 181.398438 226.257812 180.21875 226.023438 C 179.039062 225.789062 177.875 225.496094 176.726562 225.148438 C 175.574219 224.796875 174.445312 224.394531 173.335938 223.933594 C 172.222656 223.472656 171.136719 222.960938 170.078125 222.394531 C 169.019531 221.828125 167.988281 221.210938 166.988281 220.542969 C 165.988281 219.875 165.023438 219.160156 164.09375 218.398438 C 163.167969 217.636719 162.277344 216.828125 161.425781 215.980469 C 160.578125 215.128906 159.769531 214.242188 159.007812 213.3125 C 158.246094 212.382812 157.53125 211.417969 156.863281 210.417969 C 156.195312 209.421875 155.578125 208.390625 155.011719 207.332031 C 154.441406 206.269531 153.929688 205.1875 153.46875 204.074219 C 153.011719 202.964844 152.605469 201.835938 152.257812 200.683594 C 151.90625 199.535156 151.617188 198.371094 151.382812 197.191406 C 151.148438 196.011719 150.96875 194.824219 150.851562 193.628906 C 150.734375 192.433594 150.675781 191.234375 150.675781 190.035156 C 150.675781 188.832031 150.734375 187.632812 150.851562 186.4375 C 150.96875 185.242188 151.148438 184.054688 151.382812 182.875 C 151.617188 181.695312 151.90625 180.53125 152.257812 179.382812 C 152.605469 178.230469 153.011719 177.101562 153.46875 175.992188 C 153.929688 174.882812 154.441406 173.796875 155.011719 172.738281 C 155.578125 171.675781 156.195312 170.648438 156.863281 169.648438 C 157.53125 168.648438 158.246094 167.683594 159.007812 166.753906 C 159.769531 165.828125 160.578125 164.9375 161.425781 164.085938 C 162.277344 163.238281 163.167969 162.429688 164.09375 161.667969 C 165.023438 160.90625 165.988281 160.191406 166.988281 159.523438 C 167.988281 158.855469 169.019531 158.238281 170.078125 157.671875 C 171.136719 157.105469 172.222656 156.59375 173.335938 156.132812 C 174.445312 155.671875 175.574219 155.269531 176.726562 154.921875 C 177.875 154.570312 179.039062 154.28125 180.21875 154.046875 C 181.398438 153.8125 182.585938 153.632812 183.78125 153.515625 C 184.980469 153.398438 186.179688 153.339844 187.378906 153.339844 C 188.582031 153.339844 189.78125 153.398438 190.976562 153.515625 C 192.175781 153.632812 193.363281 153.8125 194.539062 154.046875 C 195.71875 154.28125 196.882812 154.570312 198.035156 154.921875 C 199.183594 155.269531 200.316406 155.671875 201.425781 156.132812 C 202.535156 156.59375 203.621094 157.105469 204.683594 157.671875 C 205.742188 158.238281 206.773438 158.855469 207.773438 159.523438 C 208.769531 160.191406 209.734375 160.90625 210.664062 161.667969 C 211.59375 162.429688 212.484375 163.238281 213.332031 164.085938 C 214.183594 164.9375 214.988281 165.828125 215.753906 166.753906 C 216.515625 167.683594 217.230469 168.648438 217.898438 169.648438 C 218.566406 170.648438 219.183594 171.675781 219.75 172.738281 C 220.316406 173.796875 220.832031 174.882812 221.289062 175.992188 C 221.75 177.101562 222.15625 178.230469 222.503906 179.382812 C 222.851562 180.53125 223.144531 181.695312 223.378906 182.875 C 223.613281 184.054688 223.789062 185.242188 223.90625 186.4375 C 224.023438 187.632812 224.085938 188.832031 224.085938 190.035156 Z M 224.085938 190.035156 " fill-opacity="1" fill-rule="nonzero"/></svg>