<svg xmlns="http://www.w3.org/2000/svg" xmlns:xlink="http://www.w3.org/1999/xlink" width="30" zoomAndPan="magnify"
    viewBox="0 0 375 374.999991" height="30" preserveAspectRatio="xMidYMid meet" version="1.0">
    <path fill="#e6bb68"
        d="M 154.390625 165.398438 C 230.933594 207.421875 157.011719 252.261719 155.125 164.957031 C 157.011719 252.261719 81.222656 210.660156 155.878906 165.371094 C 81.207031 210.660156 79.347656 124.203125 155.871094 166.222656 C 79.347656 124.203125 153.269531 79.367188 155.179688 166.671875 C 153.292969 79.367188 229.085938 120.96875 154.433594 166.257812 C 229.066406 120.96875 230.933594 207.421875 154.390625 165.398438 Z M 154.390625 165.398438 "
        fill-opacity="1" fill-rule="nonzero" />
    <path fill="#ffffff"
        d="M 162.085938 165.8125 C 162.085938 166.269531 162.039062 166.722656 161.953125 167.167969 C 161.863281 167.617188 161.730469 168.050781 161.558594 168.46875 C 161.382812 168.890625 161.167969 169.292969 160.914062 169.671875 C 160.664062 170.050781 160.375 170.398438 160.050781 170.722656 C 159.730469 171.042969 159.378906 171.332031 159 171.585938 C 158.621094 171.839844 158.222656 172.054688 157.800781 172.226562 C 157.378906 172.402344 156.945312 172.535156 156.5 172.621094 C 156.050781 172.710938 155.601562 172.753906 155.144531 172.753906 C 154.6875 172.753906 154.238281 172.710938 153.789062 172.621094 C 153.34375 172.535156 152.910156 172.402344 152.488281 172.226562 C 152.066406 172.054688 151.667969 171.839844 151.289062 171.585938 C 150.910156 171.332031 150.558594 171.042969 150.238281 170.722656 C 149.914062 170.398438 149.625 170.050781 149.375 169.671875 C 149.121094 169.292969 148.90625 168.890625 148.730469 168.46875 C 148.558594 168.050781 148.425781 167.617188 148.335938 167.167969 C 148.25 166.722656 148.203125 166.269531 148.203125 165.8125 C 148.203125 165.359375 148.25 164.90625 148.335938 164.460938 C 148.425781 164.011719 148.558594 163.578125 148.730469 163.15625 C 148.90625 162.734375 149.121094 162.335938 149.375 161.957031 C 149.625 161.578125 149.914062 161.226562 150.238281 160.90625 C 150.558594 160.582031 150.910156 160.296875 151.289062 160.042969 C 151.667969 159.789062 152.066406 159.574219 152.488281 159.402344 C 152.910156 159.226562 153.34375 159.09375 153.789062 159.003906 C 154.238281 158.917969 154.6875 158.871094 155.144531 158.871094 C 155.601562 158.871094 156.050781 158.917969 156.5 159.003906 C 156.945312 159.09375 157.378906 159.226562 157.800781 159.402344 C 158.222656 159.574219 158.621094 159.789062 159 160.042969 C 159.378906 160.296875 159.730469 160.582031 160.050781 160.90625 C 160.375 161.226562 160.664062 161.578125 160.914062 161.957031 C 161.167969 162.335938 161.382812 162.734375 161.558594 163.15625 C 161.730469 163.578125 161.863281 164.011719 161.953125 164.460938 C 162.039062 164.90625 162.085938 165.359375 162.085938 165.8125 Z M 162.085938 165.8125 "
        fill-opacity="1" fill-rule="nonzero" />
    <path fill="#ffffff"
        d="M 247.179688 134.203125 C 292.535156 159.09375 248.726562 185.671875 247.613281 133.9375 C 248.726562 185.671875 203.820312 161.015625 248.058594 134.179688 C 203.8125 161.015625 202.707031 109.789062 248.058594 134.6875 C 202.691406 109.796875 246.5 83.214844 247.621094 134.949219 C 246.5 83.214844 291.414062 107.871094 247.171875 134.707031 C 291.429688 107.871094 292.535156 159.101562 247.179688 134.203125 Z M 247.179688 134.203125 "
        fill-opacity="1" fill-rule="nonzero" />
    <path fill="#ffffff"
        d="M 251.734375 134.445312 C 251.734375 134.714844 251.707031 134.980469 251.65625 135.246094 C 251.601562 135.511719 251.523438 135.769531 251.421875 136.019531 C 251.316406 136.269531 251.191406 136.503906 251.042969 136.730469 C 250.890625 136.953125 250.722656 137.164062 250.53125 137.351562 C 250.339844 137.542969 250.132812 137.714844 249.90625 137.863281 C 249.683594 138.015625 249.445312 138.140625 249.195312 138.246094 C 248.945312 138.347656 248.6875 138.425781 248.425781 138.480469 C 248.160156 138.53125 247.890625 138.558594 247.621094 138.558594 C 247.351562 138.558594 247.082031 138.53125 246.820312 138.480469 C 246.554688 138.425781 246.296875 138.347656 246.046875 138.246094 C 245.796875 138.140625 245.5625 138.015625 245.335938 137.863281 C 245.113281 137.714844 244.902344 137.542969 244.710938 137.351562 C 244.523438 137.164062 244.351562 136.953125 244.203125 136.730469 C 244.050781 136.503906 243.925781 136.269531 243.820312 136.019531 C 243.71875 135.769531 243.640625 135.511719 243.585938 135.246094 C 243.535156 134.980469 243.507812 134.714844 243.507812 134.445312 C 243.507812 134.175781 243.535156 133.90625 243.585938 133.640625 C 243.640625 133.375 243.71875 133.121094 243.820312 132.871094 C 243.925781 132.621094 244.050781 132.382812 244.203125 132.160156 C 244.351562 131.933594 244.523438 131.726562 244.710938 131.535156 C 244.902344 131.34375 245.113281 131.171875 245.335938 131.023438 C 245.5625 130.875 245.796875 130.746094 246.046875 130.644531 C 246.296875 130.539062 246.554688 130.460938 246.820312 130.410156 C 247.082031 130.355469 247.351562 130.332031 247.621094 130.332031 C 247.890625 130.332031 248.160156 130.355469 248.425781 130.410156 C 248.6875 130.460938 248.945312 130.539062 249.195312 130.644531 C 249.445312 130.746094 249.683594 130.875 249.90625 131.023438 C 250.132812 131.171875 250.339844 131.34375 250.53125 131.535156 C 250.722656 131.726562 250.890625 131.933594 251.042969 132.160156 C 251.191406 132.382812 251.316406 132.621094 251.421875 132.871094 C 251.523438 133.121094 251.601562 133.375 251.65625 133.640625 C 251.707031 133.90625 251.734375 134.175781 251.734375 134.445312 Z M 251.734375 134.445312 "
        fill-opacity="1" fill-rule="nonzero" />
    <path fill="#fadea8"
        d="M 238.953125 231.304688 C 295.410156 262.300781 240.882812 295.378906 239.492188 230.980469 C 240.875 295.378906 184.980469 264.6875 240.042969 231.285156 C 184.980469 264.6875 183.597656 200.917969 240.042969 231.914062 C 183.585938 200.917969 238.117188 167.839844 239.503906 232.238281 C 238.121094 167.839844 294.023438 198.53125 238.953125 231.933594 C 294.035156 198.53125 295.410156 262.328125 238.953125 231.304688 Z M 238.953125 231.304688 "
        fill-opacity="1" fill-rule="nonzero" />
    <path fill="#ffffff"
        d="M 244.621094 231.609375 C 244.621094 231.945312 244.589844 232.277344 244.523438 232.609375 C 244.457031 232.9375 244.359375 233.257812 244.230469 233.566406 C 244.101562 233.878906 243.945312 234.171875 243.757812 234.453125 C 243.574219 234.730469 243.359375 234.988281 243.121094 235.226562 C 242.886719 235.464844 242.625 235.675781 242.347656 235.863281 C 242.066406 236.050781 241.773438 236.207031 241.464844 236.335938 C 241.152344 236.464844 240.832031 236.5625 240.503906 236.628906 C 240.175781 236.691406 239.839844 236.726562 239.503906 236.726562 C 239.167969 236.726562 238.835938 236.691406 238.507812 236.628906 C 238.179688 236.5625 237.859375 236.464844 237.546875 236.335938 C 237.238281 236.207031 236.941406 236.050781 236.664062 235.863281 C 236.382812 235.675781 236.125 235.464844 235.886719 235.226562 C 235.652344 234.988281 235.4375 234.730469 235.25 234.453125 C 235.066406 234.171875 234.90625 233.878906 234.777344 233.566406 C 234.652344 233.257812 234.554688 232.9375 234.488281 232.609375 C 234.421875 232.277344 234.390625 231.945312 234.390625 231.609375 C 234.390625 231.273438 234.421875 230.941406 234.488281 230.613281 C 234.554688 230.28125 234.652344 229.960938 234.777344 229.652344 C 234.90625 229.339844 235.066406 229.046875 235.25 228.765625 C 235.4375 228.488281 235.652344 228.230469 235.886719 227.992188 C 236.125 227.753906 236.382812 227.542969 236.664062 227.355469 C 236.941406 227.167969 237.238281 227.011719 237.546875 226.882812 C 237.859375 226.753906 238.179688 226.65625 238.507812 226.589844 C 238.835938 226.527344 239.167969 226.492188 239.503906 226.492188 C 239.839844 226.492188 240.175781 226.527344 240.503906 226.589844 C 240.832031 226.65625 241.152344 226.753906 241.464844 226.882812 C 241.773438 227.011719 242.066406 227.167969 242.347656 227.355469 C 242.625 227.542969 242.886719 227.753906 243.121094 227.992188 C 243.359375 228.230469 243.574219 228.488281 243.757812 228.765625 C 243.945312 229.046875 244.101562 229.339844 244.230469 229.652344 C 244.359375 229.960938 244.457031 230.28125 244.523438 230.613281 C 244.589844 230.941406 244.621094 231.273438 244.621094 231.609375 Z M 244.621094 231.609375 "
        fill-opacity="1" fill-rule="nonzero" /></svg>