<svg xmlns="http://www.w3.org/2000/svg" xmlns:xlink="http://www.w3.org/1999/xlink" width="1080" zoomAndPan="magnify" viewBox="0 0 810 809.999993" height="1080" preserveAspectRatio="xMidYMid meet" version="1.0"><defs><g/><clipPath id="1347e4d41d"><path d="M 14.160156 14.160156 L 795.839844 14.160156 L 795.839844 795.839844 L 14.160156 795.839844 Z M 14.160156 14.160156 " clip-rule="nonzero"/></clipPath><clipPath id="40c5935d21"><path d="M 405 14.160156 C 189.144531 14.160156 14.160156 189.144531 14.160156 405 C 14.160156 620.855469 189.144531 795.839844 405 795.839844 C 620.855469 795.839844 795.839844 620.855469 795.839844 405 C 795.839844 189.144531 620.855469 14.160156 405 14.160156 " clip-rule="nonzero"/></clipPath></defs><g clip-path="url(#1347e4d41d)"><g clip-path="url(#40c5935d21)"><path fill="#413a41" d="M 14.160156 14.160156 L 795.839844 14.160156 L 795.839844 795.839844 L 14.160156 795.839844 Z M 14.160156 14.160156 " fill-opacity="1" fill-rule="nonzero"/></g></g><g fill="#e7b0d1" fill-opacity="1"><g transform="translate(192.222649, 633.750303)"><g><path d="M 379.8125 -47.125 C 387.664062 -47.125 393.265625 -45.332031 396.609375 -41.75 C 399.960938 -38.175781 401.640625 -32.113281 401.640625 -23.5625 C 401.640625 -15.019531 399.960938 -8.957031 396.609375 -5.375 C 393.265625 -1.789062 387.664062 0 379.8125 0 L 267.53125 0 C 259.675781 0 254.070312 -1.789062 250.71875 -5.375 C 247.375 -8.957031 245.703125 -15.019531 245.703125 -23.5625 C 245.703125 -32.113281 247.375 -38.175781 250.71875 -41.75 C 254.070312 -45.332031 259.675781 -47.125 267.53125 -47.125 L 292.484375 -47.125 L 205.5 -150.40625 L 142.421875 -94.953125 L 142.421875 -47.125 L 167.71875 -47.125 C 175.582031 -47.125 181.1875 -45.332031 184.53125 -41.75 C 187.882812 -38.175781 189.5625 -32.113281 189.5625 -23.5625 C 189.5625 -15.019531 187.882812 -8.957031 184.53125 -5.375 C 181.1875 -1.789062 175.582031 0 167.71875 0 L 51.984375 0 C 44.128906 0 38.523438 -1.789062 35.171875 -5.375 C 31.828125 -8.957031 30.15625 -15.019531 30.15625 -23.5625 C 30.15625 -32.113281 31.828125 -38.175781 35.171875 -41.75 C 38.523438 -45.332031 44.128906 -47.125 51.984375 -47.125 L 90.453125 -47.125 L 90.453125 -407.53125 L 45.046875 -407.53125 C 37.191406 -407.53125 31.585938 -409.320312 28.234375 -412.90625 C 24.890625 -416.488281 23.21875 -422.550781 23.21875 -431.09375 C 23.21875 -439.644531 24.890625 -445.707031 28.234375 -449.28125 C 31.585938 -452.863281 37.191406 -454.65625 45.046875 -454.65625 L 120.59375 -454.65625 C 128.445312 -454.65625 134.046875 -452.863281 137.390625 -449.28125 C 140.742188 -445.707031 142.421875 -439.644531 142.421875 -431.09375 L 142.421875 -156.640625 L 274.46875 -273.078125 L 249.859375 -273.078125 C 242.003906 -273.078125 236.398438 -274.863281 233.046875 -278.4375 C 229.703125 -282.019531 228.03125 -288.085938 228.03125 -296.640625 C 228.03125 -305.191406 229.703125 -311.253906 233.046875 -314.828125 C 236.398438 -318.410156 242.003906 -320.203125 249.859375 -320.203125 L 365.609375 -320.203125 C 373.460938 -320.203125 379.0625 -318.410156 382.40625 -314.828125 C 385.757812 -311.253906 387.4375 -305.191406 387.4375 -296.640625 C 387.4375 -288.085938 385.757812 -282.019531 382.40625 -278.4375 C 379.0625 -274.863281 373.460938 -273.078125 365.609375 -273.078125 L 345.15625 -273.078125 L 243.265625 -183.328125 L 359.71875 -47.125 Z M 379.8125 -47.125 "/></g></g></g></svg>