<svg xmlns="http://www.w3.org/2000/svg" xmlns:xlink="http://www.w3.org/1999/xlink" width="50" zoomAndPan="magnify" viewBox="0 0 375 374.999991" height="50" preserveAspectRatio="xMidYMid meet" version="1.0"><defs><clipPath id="cf4b0b49e9"><path d="M 81.328125 61.664062 L 293.578125 61.664062 L 293.578125 313.664062 L 81.328125 313.664062 Z M 81.328125 61.664062 " clip-rule="nonzero"/></clipPath></defs><g clip-path="url(#cf4b0b49e9)"><path fill="#dddddd" d="M 293.574219 85.15625 C 195.953125 206.324219 132.914062 282.480469 104.367188 313.664062 L 81.328125 293.628906 C 105.027344 264.871094 130.488281 232.613281 157.71875 196.859375 C 184.945312 161.109375 218.171875 115.972656 257.433594 61.664062 Z M 162.03125 143.785156 C 160.058594 153.085938 155.582031 161.109375 148.558594 167.9375 C 142.605469 173.039062 133.488281 175.300781 121.207031 174.726562 C 108.925781 174.148438 98.167969 168.511719 88.96875 157.855469 C 83.875 148.640625 83.628906 137.203125 88.1875 123.585938 C 92.746094 109.96875 104.203125 101.285156 122.523438 97.542969 C 139.03125 98.613281 151.394531 105.894531 159.6875 119.472656 C 163.222656 126.425781 164 134.53125 162.03125 143.785156 Z M 236.488281 216.199219 C 245.484375 215.457031 254.066406 217.269531 262.320312 221.585938 C 268.644531 225.621094 273.449219 233.230469 276.738281 244.378906 C 279.980469 255.53125 278.214844 266.679688 271.398438 277.828125 C 264.582031 284.949219 254.394531 288.28125 240.800781 287.867188 C 227.207031 287.417969 215.914062 279.515625 206.878906 264.128906 C 202.730469 249.113281 205.523438 235.988281 215.214844 224.753906 C 220.429688 219.777344 227.496094 216.9375 236.488281 216.199219 Z M 236.488281 216.199219 " fill-opacity="1" fill-rule="nonzero"/></g></svg>