<svg xmlns="http://www.w3.org/2000/svg" xmlns:xlink="http://www.w3.org/1999/xlink" width="40" zoomAndPan="magnify" viewBox="0 0 375 374.999991" height="40" preserveAspectRatio="xMidYMid meet" version="1.0"><defs><clipPath id="bd7ab24978"><path d="M 54.808594 54.808594 L 320.308594 54.808594 L 320.308594 320.308594 L 54.808594 320.308594 Z M 54.808594 54.808594 " clip-rule="nonzero"/></clipPath></defs><path fill="#ffe47e" d="M 60.863281 60.863281 L 187.527344 60.863281 L 187.527344 187.527344 L 60.863281 187.527344 Z M 60.863281 60.863281 " fill-opacity="1" fill-rule="evenodd"/><path fill="#7e9eff" d="M 187.527344 60.863281 L 314.1875 60.863281 L 314.1875 187.527344 L 187.527344 187.527344 Z M 187.527344 60.863281 " fill-opacity="1" fill-rule="evenodd"/><path fill="#ff847e" d="M 187.527344 187.527344 L 314.1875 187.527344 L 314.1875 314.1875 L 187.527344 314.1875 Z M 187.527344 187.527344 " fill-opacity="1" fill-rule="evenodd"/><path fill="#7eff86" d="M 60.863281 187.527344 L 187.527344 187.527344 L 187.527344 314.1875 L 60.863281 314.1875 Z M 60.863281 187.527344 " fill-opacity="1" fill-rule="evenodd"/><g clip-path="url(#bd7ab24978)"><path fill="#ffffff" d="M 54.785156 60.863281 L 54.785156 314.1875 C 54.785156 317.546875 57.503906 320.265625 60.863281 320.265625 L 314.1875 320.265625 C 315.855469 320.265625 317.363281 319.597656 318.460938 318.511719 L 318.710938 318.25 L 318.949219 317.96875 L 319.308594 317.464844 L 319.550781 317.054688 L 319.730469 316.691406 C 319.835938 316.453125 319.929688 316.210938 320.003906 315.960938 C 320.125 315.570312 320.203125 315.160156 320.242188 314.738281 L 320.265625 314.1875 L 320.265625 60.863281 C 320.265625 57.503906 317.546875 54.785156 314.1875 54.785156 L 60.863281 54.785156 C 57.503906 54.785156 54.785156 57.503906 54.785156 60.863281 Z M 181.445312 308.109375 L 181.445312 193.605469 L 66.941406 193.605469 L 66.941406 308.109375 Z M 245.40625 308.109375 L 193.605469 308.109375 L 193.605469 193.605469 C 193.605469 193.605469 308.109375 193.605469 308.109375 193.605469 C 308.109375 193.605469 308.109375 308.109375 308.109375 308.109375 Z M 121.386719 242.257812 L 107.347656 228.222656 C 104.976562 225.851562 101.125 225.851562 98.75 228.222656 C 96.378906 230.59375 96.378906 234.449219 98.75 236.820312 L 112.789062 250.855469 L 98.75 264.894531 C 96.378906 267.265625 96.378906 271.117188 98.75 273.492188 C 101.125 275.863281 104.976562 275.863281 107.347656 273.492188 L 121.386719 259.453125 L 135.421875 273.492188 C 137.792969 275.863281 141.648438 275.863281 144.019531 273.492188 C 146.390625 271.117188 146.390625 267.265625 144.019531 264.894531 L 129.984375 250.855469 L 144.019531 236.820312 C 146.390625 234.449219 146.390625 230.59375 144.019531 228.222656 C 141.648438 225.851562 137.792969 225.851562 135.421875 228.222656 Z M 229.980469 269.902344 L 272.988281 269.902344 C 276.34375 269.902344 279.070312 267.175781 279.070312 263.820312 C 279.070312 260.46875 276.34375 257.742188 272.988281 257.742188 L 229.980469 257.742188 C 226.625 257.742188 223.902344 260.46875 223.902344 263.820312 C 223.902344 267.175781 226.625 269.902344 229.980469 269.902344 Z M 228.722656 243.96875 L 271.730469 243.96875 C 275.085938 243.96875 277.8125 241.246094 277.8125 237.890625 C 277.8125 234.535156 275.085938 231.8125 271.730469 231.8125 L 228.722656 231.8125 C 225.367188 231.8125 222.644531 234.535156 222.644531 237.890625 C 222.644531 241.246094 225.367188 243.96875 228.722656 243.96875 Z M 66.941406 66.941406 L 66.941406 181.445312 L 181.445312 181.445312 L 181.445312 66.941406 Z M 193.605469 66.941406 L 308.109375 66.941406 L 308.109375 181.445312 L 193.605469 181.445312 Z M 115.304688 118.117188 L 95.453125 118.117188 C 92.101562 118.117188 89.375 120.839844 89.375 124.195312 C 89.375 127.550781 92.101562 130.273438 95.453125 130.273438 L 115.304688 130.273438 L 115.304688 150.125 C 115.304688 153.480469 118.03125 156.203125 121.386719 156.203125 C 124.742188 156.203125 127.464844 153.480469 127.464844 150.125 L 127.464844 130.273438 L 147.316406 130.273438 C 150.671875 130.273438 153.394531 127.550781 153.394531 124.195312 C 153.394531 120.839844 150.671875 118.117188 147.316406 118.117188 L 127.464844 118.117188 L 127.464844 98.265625 C 127.464844 94.910156 124.742188 92.183594 121.386719 92.183594 C 118.03125 92.183594 115.304688 94.910156 115.304688 98.265625 Z M 269.191406 133.910156 C 264.433594 133.910156 260.570312 137.773438 260.570312 142.53125 C 260.570312 147.289062 264.433594 151.152344 269.191406 151.152344 C 273.949219 151.152344 277.8125 147.289062 277.8125 142.53125 C 277.8125 137.773438 273.949219 133.910156 269.191406 133.910156 Z M 264.894531 101.558594 L 228.222656 138.230469 C 225.851562 140.605469 225.851562 144.457031 228.222656 146.828125 C 230.59375 149.203125 234.449219 149.203125 236.820312 146.828125 L 273.492188 110.15625 C 275.863281 107.785156 275.863281 103.933594 273.492188 101.558594 C 271.117188 99.1875 267.265625 99.1875 264.894531 101.558594 Z M 232.519531 97.238281 C 227.761719 97.238281 223.902344 101.101562 223.902344 105.859375 C 223.902344 110.617188 227.761719 114.480469 232.519531 114.480469 C 237.277344 114.480469 241.140625 110.617188 241.140625 105.859375 C 241.140625 101.101562 237.277344 97.238281 232.519531 97.238281 Z M 232.519531 97.238281 " fill-opacity="1" fill-rule="evenodd"/></g></svg>